<?xml version="1.0" encoding="UTF-8" standalone="no"?>
<svg xmlns:rdf="http://www.w3.org/1999/02/22-rdf-syntax-ns#" xmlns="http://www.w3.org/2000/svg" height="1312" viewBox="0 0 1612 1312" width="1612" version="1.1" xmlns:cc="http://creativecommons.org/ns#" xmlns:dc="http://purl.org/dc/elements/1.1/">
<path d="m639.5 1311c-0.33992-0.55-1.904-1-3.4757-1s-3.0164-0.4763-3.2105-1.0584c-0.19405-0.5822-3.719-1.495-7.8333-2.0285-12.894-1.6721-30.096-4.5304-34.981-5.8124-10.86-2.8501-55.488-10.731-77.5-13.686-5.1083-0.6857-15.276-2.7827-19.164-3.9524-1.5894-0.4782-2.4621-0.095-3.2852 1.4431-1.2572 2.3492-3.7233 2.656-7.5034 0.9337-2.53-1.1528-3.2339-2.8197-1.797-4.2558 0.79086-0.7905 1.3167-4.2452 1.3444-8.8337 0.0625-10.312-0.37849-18.954-1.1862-23.25-0.5171-2.75-1.1193-9.95-1.3383-16-0.21896-6.05-0.87337-19.55-1.4542-30-0.58087-10.45-0.88548-25.525-0.67692-33.5 0.31857-12.181-0.91918-62.282-1.9641-79.5-0.16688-2.75-0.57854-13.214-0.91478-23.252-0.63947-19.092-1.0039-21.064-4.9725-26.904-3.1511-4.6373-2.4603-6.1019 3.2512-6.8933 12.736-1.7647 32.504-7.9652 51.38-16.116 6.9949-3.0205 13.182-5.2048 13.75-4.854 1.5068 0.9312 1.2618 3.5197-0.33321 3.5197-0.75083 0-2.4383 0.8098-3.75 1.7995-3.2534 2.4548-13.291 6.4186-25.885 10.222-5.775 1.744-11.127 3.3632-11.893 3.5982-5.0595 1.552 24.587 4.2587 47.471 4.334 7.7426 0.025 23.943 0.6987 36 1.496 36.71 2.4277 40.378 2.6284 56.419 3.0867 9.1465 0.2614 15.635 0.8569 15.833 1.4532 1.9269 5.7807 2.3177-1.1406 0.49345-8.7396-0.4254-1.772-0.10873-2.25 1.4907-2.25 2.1288 0 3.4379 2.8266 4.7472 10.25 0.7003 3.9708 2.6124 4.7978 6.4024 2.7695 1.0077-0.5393 6.9747-2.3343 13.26-3.9888 16.237-4.2743 35.725-10.692 38.693-12.743 0.99418-0.6868-1.1365-1.5865-4.6343-1.957-2.0803-0.2203-6.4824-0.8315-9.7824-1.3581-3.3-0.5267-8.7-0.9717-12-0.989-3.3-0.017-7.8-0.4589-10-0.9815-3.2538-0.7728-29.084-2.3304-37-2.2311-1.1 0.014-13.25-1.0195-27-2.2961-13.75-1.2767-29.34-2.6045-34.645-2.9507-12.879-0.8406-30.849-4.0898-32.666-5.9063-4.1286-4.1285 2.0312-6.1201 11.128-3.5978 5.8514 1.6226 13.142 2.3894 47.183 4.9626 7.15 0.5405 17.95 1.4623 24 2.0484 6.05 0.586 18.65 1.4503 28 1.9205 27.556 1.3859 62.646 4.8815 65.831 6.558 1.5571 0.8196 4.7671 1.4903 7.1334 1.4903 8.2354 0 6.846 5.9755-1.5776 6.7849-2.9295 0.2815-6.69 1.3434-8.3566 2.3597-1.6666 1.0164-3.7052 1.8524-4.5302 1.8578-0.825 0.01-2.7889 0.6821-4.3643 1.5038-1.5754 0.8216-3.9113 1.4938-5.191 1.4938s-2.6048 0.45-2.9447 1c-0.33992 0.55-1.5094 1-2.5989 1-1.0894 0-3.748 0.9016-5.908 2.0035-2.1599 1.1019-6.3045 2.5044-9.2102 3.1168-2.9057 0.6123-5.733 1.4487-6.283 1.8586-1.5827 1.1796-6.7822 2.3513-9.3038 2.0966-1.2671-0.128-4.5354 0.3392-7.2628 1.0382l-4.959 1.2709 0.69691 13.058c0.8403 15.744 1.0173 122.46 0.25307 152.56-0.92198 36.312 0.79868 70.573 3.5982 71.647 1.4068 0.5398 14.781-5.3727 15.311-6.7687 0.18334-0.4831 0.79032-0.8784 1.3488-0.8784 1.1176 0 16.271-7.5286 21.818-10.84 1.925-1.1491 11.375-6.0012 21-10.782 9.625-4.7812 18.175-9.0853 19-9.5647 0.825-0.4793 2.3059-1.1407 3.2909-1.4698 0.98499-0.329 1.6482-0.8785 1.4739-1.2209-4.0911-8.0365-6.3096-16.761-4.7422-18.65 1.5181-1.8292 1.9386-13.52 0.8262-22.973-0.89929-7.6417-1.2789-134-0.40684-135.41 0.23089-0.3736-0.0641-8.6682-0.65546-18.432-0.79203-13.077-0.77879-18.334 0.0503-19.957 0.61904-1.2122 1.2465-4.679 1.3944-7.704 0.23189-4.7437 0.54387-5.5 2.2689-5.5 3.067 0 3.1889 2.8477 3.9412 92.126 0.37946 45.031 0.85651 86.149 1.0601 91.374 1.6047 41.18 1.6758 42.024 3.6282 43.069 5.0222 2.6878-0.91347 8.3281-15.787 15.002-3.5979 1.6143-7.7343 3.7738-9.1919 4.799s-12.325 6.8053-24.15 12.845c-21.943 11.207-35.286 18.401-40.32 21.738-1.5511 1.0283-4.2498 2.5846-5.9971 3.4586-1.7473 0.8739-3.3287 2.489-3.5142 3.589-0.4292 2.5449-2.9254 4.5-5.7454 4.5-1.207 0-3.4835 0.6722-5.0589 1.4938-3.353 1.7488-5.0081 1.8916-5.8643 0.5062zm9.5-11.66c1.7556-1.6525 1.7745-2.017 2.4607-47.34 0.37783-24.956 0.61023-157.92 0.32423-185.5-0.0299-2.8868 0.7308-10.092 1.854-17.559l0.53536-3.5593-3.5872 0.4187c-3.7857 0.442-4.612 2.1046-2.0872 4.2 3.3465 2.7774 1.8716 5.9994-2.75 6.0073-11.205 0.019-36.337-2.507-55.75-5.6037-48.261-7.6983-70.743-9.4547-108.13-8.4476-2.5761 0.069-2.652 3.1565-0.74137 30.159 0.98789 13.962 1.8138 25.723 1.8355 26.135 0.10435 1.9905 2.3424 0.2544 5.9265-4.5973 5.4799-7.4179 7.1746-8.9909 8.3838-7.7817 0.99812 0.9981-0.0314 2.5359-9.8902 14.773-3.1696 3.9341-4.0269 5.7566-3.6459 7.75 0.68383 3.5772 1.2429 3.3138 5.2651-2.4811 6.4242-9.2556 6.7188-9.5494 8.1565-8.135 0.88376 0.8695 0.98628 1.7198 0.32098 2.6623-12.476 17.673-17.361 27.447-8.0226 16.05 5.5525-6.7762 9.253-5.7288 4.0164 1.1367-1.3908 1.8234-3.8737 6.1409-5.5175 9.5944l-2.9888 6.2791 0.51393 17.5c0.28266 9.625 0.75416 31.45 1.0478 48.5 0.29362 17.05 1.1856 40.675 1.9822 52.5 0.79662 11.825 1.458 21.82 1.4698 22.212 0.0282 0.9378 4.5506 2.0114 22.021 5.2275 7.975 1.468 20.35 3.7651 27.5 5.1046s18.4 3.36 25 4.49 17.175 2.9693 23.5 4.0874c6.325 1.118 14.2 2.4637 17.5 2.9905s7.3858 1.4018 9.0796 1.9445c9.6779 3.1007 31.621 3.9191 34.42 1.2838zm-12.55-251.26c0.83981-1.3589-3.5493-2.0275-16.95-2.582-6.6-0.2731-13.912-0.7733-16.25-1.1115-2.697-0.3903-4.25-0.2305-4.25 0.4373 0 2.3098 36.095 5.4482 37.45 3.2562zm241.2 214.23c-0.37674-0.3767-7.1552-0.5694-15.063-0.4281-8.5387 0.1525-14.623-0.1386-14.98-0.7167-0.3309-0.5354-3.4149-1.2682-6.8534-1.6285-11.623-1.218-22.583-5.4148-31.812-12.181-4.1549-3.0465-6.3137-4.0118-8.1757-3.6558-1.416 0.2707-2.8646-0.058-3.2897-0.7455-1.1191-1.8108-1.3436-119.22-0.23069-120.66 1.3682-1.7803 1.2086-39.165-0.18235-42.719-2.5506-6.5166 4.3483-12.576 14.318-12.576 1.0953 0 2.9204-0.8508 4.0558-1.8906 10.027-9.1825 81.536-4.7666 108.38 6.6931 9.8041 4.1847 14.757 13.074 10.594 19.017-5.2518 7.4979-29.531 15.9-42.914 14.85-12.106-0.949-38.14-3.7895-43-4.6915-16.546-3.071-26.767-5.4716-34.678-8.145-11.142-3.7651-10.541-8.2578-6.9051 51.667 0.53396 8.8 1.2835 32.679 1.6657 53.064l0.69483 37.064 2.8904 3.2349c16.27 18.209 74.69 22.805 103.83 8.1676 3.025-1.5194 7.457-3.5862 9.849-4.5928 7.6513-3.2198 9.6495-7.048 8.2399-15.786-0.737-4.5687-0.90698-10.466-0.45336-15.73 0.39913-4.6316 0.79551-12.471 0.88084-17.421 0.42957-24.919 1.6518-52.798 2.603-59.376 0.58665-4.0569 1.0653-15.982 1.0637-26.5-0.003-19.554 0.37414-21.624 3.9394-21.624 1.0327 0 1.9109 0.5625 1.9516 1.25s0.0101 15.951-0.068 33.919l-0.14201 32.669 7.818 0.3314c46.25 1.9604 80.47-4.2365 88.56-16.037 1.7462-2.5473 4.0211-5.5314 5.0552-6.6314s5.2593-8.975 9.3893-17.5c16.593-34.251 19.269-39.854 23.164-48.5 5.4733-12.151 14.194-33.459 14.865-36.32 0.5917-2.5225-0.7088-2.543-11.216-0.1768-2.2 0.4954-11.65 2.0879-21 3.5388-9.35 1.451-22.323 3.4975-28.828 4.5479-6.5055 1.0504-14.606 1.9132-18 1.9174-3.3945 0-9.9968 0.4998-14.672 1.1014-4.675 0.6016-24.25 1.2593-43.5 1.4616s-39.5 0.4546-45 0.5608c-5.5 0.1061-12.7-0.1486-16-0.5661-3.3-0.4174-15.675-0.8921-27.5-1.0549-11.904-0.1638-23.509-0.8108-26-1.4495-2.475-0.6344-11.475-1.3558-20-1.6029-13.903-0.403-17.729-0.8062-28.5-3.0025-8.7794-1.7902-22.559-3.7299-23.045-3.2438-1.3626 1.3626-0.45535 12.85 1.4652 18.551 1.1439 3.3957 2.0799 7.0715 2.0799 8.1685s0.85555 4.1651 1.9012 6.818c2.1664 5.4962 1.8524 14.251-0.51105 14.251-2.0442 0-7.2116-9.7877-8.4472-16-0.60163-3.025-1.9599-7.7587-3.0184-10.519-1.0585-2.7607-1.9246-6.239-1.9246-7.7298 0-1.4907-0.73479-4.5468-1.6329-6.7914-1.2911-3.2268-1.3958-4.6012-0.5-6.5672 0.62307-1.3675 1.1329-3.5118 1.1329-4.765 0-6.5417 4.501-7.5217 16.659-3.6273 5.151 1.65 9.81 3 10.353 3 2.0923 0 0.84055-1.6999-2.3842-3.2377-4.3573-2.0778-5.5324-6.0591-2.8598-9.6889 3.275-4.448 17.023-7.7555 21.217-5.1041 1.6608 1.0501 6.0155-2.3115 6.0155-4.6436 0-0.7291 0.5625-1.3735 1.25-1.432 0.6875-0.058 1.925-0.2065 2.75-0.3289 0.825-0.1225 2.9625-0.2997 4.75-0.3937 2.4808-0.1306 3.25-0.62628 3.25-2.0944 0-8.0582 16.101-14.079 19.831-7.4151 1.0458 1.8687 7.352 4.4445 11.669 4.7663 1.65 0.12299 3.9 0.69278 5 1.2662 4.2594 2.2204 9.5012 2.5525 9.4864 0.60113-0.0286-3.76-1.3418-6.48-3.5304-7.3121-1.3899-0.52844-2.5295-2.0416-2.9378-3.9008-1.8821-8.5692 6.1293-12.176 9.4167-4.2398 0.92401 2.2308 2.0467 3.055 4.7612 3.4955 1.9536 0.31703 4.2838 1.2182 5.178 2.0026 0.89428 0.78438 4.184 2.1576 7.3104 3.0516 4.0928 1.1703 6.388 2.5245 8.1972 4.8361 3.0382 3.8822 4.2539 3.1713 2.5648-1.4998-1.1092-3.0674-0.96844-3.9891 1.3611-8.9133 3.5798-7.567 4.5366-8.1901 11.283-7.3472l5.6055 0.70036-0.66137-3.0112c-1.3266-6.04 10.791-20.54 16.691-19.972 2.5031 0.24093 3.2749 0.78652 3.2749 2.3152 0 1.5931-0.55948 1.9346-2.75 1.6784-3.8153-0.44613-3.4546 1.3305 0.5 2.4629 1.9369 0.55464 4.0581 2.2136 5.25 4.1061 2.4231 3.8473 4.2294 4.0944 5.5 0.75254 0.52277-1.375 1.4604-2.5 2.0837-2.5 0.70562 0 0.89931-0.93172 0.51336-2.4695-1.5339-6.1114 21.29-9.3473 24.438-3.4648 0.94665 1.7688 1.5886 23.212 0.81744 27.306-0.27723 1.4719 0.6449 2.1679 4.3133 3.2558 4.6742 1.3861 9.834 6.0815 9.834 8.9489 0 1.7534 2.6756 1.896 3.2504 0.17327 0.22941-0.6875 1.6612-1.25 3.1817-1.25 2.3302 0 6.5417-6.4877 6.5671-10.116 0.00044-0.0641-3.0367 0.0767-6.7492 0.31282-10.123 0.6438-13.517-1.3968-14.463-8.6963-0.99136-7.6431-0.73804-8 5.6788-8h5.5282l-0.24683-8.75c-0.13576-4.8125 0.13289-13.572 0.59699-19.465l0.84384-10.715-5.5555-2.7247c-4.8646-2.3858-5.8542-2.5648-7.9577-1.4391-2.0126 1.0771-2.9028 1.0267-5.4887-0.31049-1.6976-0.87786-3.7141-1.5961-4.4812-1.5961-5.3441 0-4.7515-20.469 1.0133-35 3.226-8.1316 0.94558-16.141-2.4647-8.6566-1.0687 2.3456-9.3612 9.775-14.468 12.962-16.676 10.408-20.237-15.152-3.9816-28.573 8.3254-6.8735 10.074-8.6388 13.938-14.07 3.6185-5.0864 2.7624-7.4801-0.90863-2.5405-13.609 18.312-27.152 22.487-29.379 9.0558-1.0875-6.5598-1.1949-6.6461-4.7177-3.7901-15.255 12.368-28.46 0.65639-19.462-17.26 3.0653-6.1031-0.63592-6.571-4.1997-0.53093-1.1095 1.8804-3.2677 3.9676-4.7961 4.638-1.5284 0.67046-5.1866 2.8042-8.1294 4.7417-14.379 9.4668-21.266 12.091-30.711 11.703-9.4109-0.38712-14.356-6.9052-12.089-15.935 1.0917-4.3496 17.409-18.16 29.151-24.673 3.3-1.8303 8.0778-5.2575 10.617-7.6158 2.5395-2.3584 6.927-5.4584 9.75-6.8889s5.1328-3.0717 5.1328-3.6471c0-3.7662 6.3202-12.942 14.809-21.5 11.453-11.547 11.415-11.652-4.596-12.556-22.938-1.2949-33.056-7.2778-36.225-21.42-2.1852-9.7509 1.5725-12.864 11.433-9.4715 15.12 5.2022 25.561 6.3517 46.73 5.145 3.4508-0.19671 6.6086 0.20432 8.1114 1.0301 1.3535 0.74372 5.7857 3.086 9.8495 5.205 4.0637 2.119 12.564 6.695 18.889 10.169 6.325 3.4738 13.835 7.1232 16.688 8.1099l5.1882 1.794 2.3871-2.5757c3.5101-3.7874 21.487-5.4672 32.275-3.0157 2.7291 0.6202 7.8871 1.7702 11.462 2.5556 8.1333 1.7868 21.085 6.0606 27 8.9095 4.3122 2.077 5.7934 2.169 35.5 2.2049 29.188 0.0353 31.614 0.17936 41.5 2.4634 11.782 2.722 13.389 2.7908 20.604 0.88246 4.4887-1.1872 5.0095-1.591 4.3202-3.35-5.3546-13.664 4.2646-57.156 15.286-69.112l3.9854-4.3236-1.9823-2.5201c-3.196-4.0631-4.5673-14.432-4.6345-35.044-0.061-18.703 0.3317-26.187 2.3089-44 0.5494-4.95 1.0917-17.028 1.205-26.84 0.2058-17.818 0.2091-17.841 2.6283-18.943 3.7899-1.7268 4.2779 0.35989 3.5976 15.382-0.7255 16.016 0.3744 18.445 3.6941 8.1581 2.3302-7.2209 15.113-34.106 20.601-43.33 9.6585-16.232 47.538-35.866 54.932-28.472 3.5276 3.5276 3.3598 6.9982-0.2955 6.1115-3.8029-0.92251-9.5526-0.66348-10.698 0.48197-0.5236 0.52358-1.9064 0.95197-3.0729 0.95197-1.1666 0-9.0118 4.95-17.434 11-8.4221 6.05-15.703 11-16.179 11-0.4764 0-0.8661 1.125-0.8661 2.5s-0.4488 2.5-0.9974 2.5c-1.5215 0-12.915 24.276-21.589 46-2.1028 5.2664-5.0977 19.578-5.7986 27.71-0.3418 3.9656-1.053 8.2406-1.5805 9.5-3.7489 8.9511-2.8597 43.414 1.3667 52.97l2.465 5.5736-3.0714 2.8729c-11.146 10.425-23.283 71.706-13.772 69.536 8.6013-1.9624 18.18-3.085 21.478-2.5173 5.5394 0.95348 1.5715 2.1168-7.691 2.2548-3.68 0.0548-6.955 0.52694-7.2778 1.0492-0.5567 0.90086 1.0053 1.2918 9.7336 2.436 10.514 1.3784 24.735 11.591 24.735 17.764 0 10.575-4.8434 11.21-5.8477 0.76711-0.1659-1.7255-9.962-8.9162-12.147-8.9162-0.7415 0-2.0974-0.67809-3.0132-1.5069-3.1096-2.8141-22.322-4.4353-25.45-2.1475-1.7657 1.2911-1.7293 1.5723 0.9005 6.9473 3.8891 7.9491 1.6472 10.545-4.0054 4.6376-3.3784-3.5306-8.8509-6.4108-10.382-5.4643-0.5752 0.35551-2.0604-0.44643-3.3003-1.7821-7.2415-7.8005-57.872-11.454-68.851-4.9678-2.1598 1.2758-3.2606 1.3548-5.927 0.42527-1.8011-0.62785-4.445-1.1449-5.8754-1.1491-3.4926-0.0101-25.322-5.6222-31.034-7.9784-2.5116-1.036-7.9415-2.3974-12.066-3.0253-4.125-0.62791-9.3868-1.5572-11.693-2.0652-8.1441-1.7938-15.239-1.2134-16.215 1.3265-1.3892 3.6134-2.9583 13.406-4.0789 25.456-0.57316 6.1633-1.2612 11.788-1.5289 12.5-1.3067 3.4735-4.1239 21.899-3.4152 22.337 0.44592 0.27559 0.12794 2.1353-0.70663 4.1327s-2.1465 7.0501-2.9155 11.228c-1.4152 7.6896-3.0616 14.272-6.5342 26.125-1.052 3.5905-1.9126 7.4279-1.9126 8.5275s-0.68685 2.9799-1.5263 4.1784c-1.8406 2.6279-6.4304 18.949-7.1402 25.389-0.56571 5.1339-0.42109 5.2221 10.166 6.1974 4.1692 0.38406 8.334 2.0885 14.848 6.0763 2.1162 1.2956 7.3497 3.1123 11.63 4.0371 5.5129 1.1911 8.4516 2.3937 10.077 4.1236 1.2618 1.3431 3.0991 2.442 4.0829 2.442s4.072 0.9 6.8627 2 6.6695 2 8.6194 2c1.95 0 6.6934 1.3817 10.541 3.0704 5.7924 2.5423 9.0351 3.2252 18.853 3.9704 6.5214 0.49501 14.699 1.3372 18.172 1.8716 3.4733 0.53434 10.492 1.2818 15.597 1.6611 6.4995 0.48283 9.9478 1.213 11.502 2.4354 1.7034 1.3399 4.6775 1.8369 12.79 2.1372 13.883 0.51391 21.816 4.9298 10.926 6.0814-5.5257 0.5843 2.8455 2.622 29.5 7.1808 4.95 0.84661 11.37 2.2025 14.266 3.0131 7.4679 2.0901 38.523 1.5318 41.031-0.73763 1.3713-1.2409 4.07-1.514 13.515-1.3672 11.002 0.17098 11.916 0.0376 13.495-1.9682 0.9314-1.1834 4.5646-3.5819 8.0737-5.3301s10.259-5.6918 15-8.7636c4.7409-3.0718 12.933-8.3885 18.204-11.815 5.2711-3.4263 11.348-7.1296 13.504-8.2295 2.1559-1.0999 6.477-4.7234 9.6024-8.0523s7.3987-7.1556 9.4963-8.5037c10.705-6.8803 26.421-26.721 35.951-45.386 3.5742-7.0001 6.9036-13.216 7.3987-13.812 1.9683-2.3717 5.562-19.455 4.6129-21.928-0.6706-1.7476-6.6314 1.0474-6.6429 3.1148-0.01 1.8247-2.748 2.3731-4.0451 0.81028-1.6951-2.0425-0.6077-4.0163 3.741-6.7909 5.5049-3.5122 8.3431-6.9444 9.3575-11.316 1.3253-5.7114 1.1928-6.5616-0.9185-5.8915-4.6881 1.488-3.9731-1.9385 1.9446-9.3194 4.285-5.3445 6.4664-9.1841 7.9538-14 1.5934-5.1593 3.0076-7.5258 6.3559-10.636 4.5842-4.2579 10.675-18.83 8.6972-20.807-0.9114-0.91138-4.5719 6.2431-5.7567 11.252-1.0859 4.5903-6.6512 9.0557-11.286 9.0557-3.0137 0-2.517-1.5807 1.7003-5.4116 4.043-3.6726 6.6796-9.5689 10.324-23.088 2.4815-9.2054 3.6478-11.79 4.9555-10.982 2.8245 1.7456 9.0499-10.772 6.5837-13.238-1.1963-1.1964-3.4865 2.0106-4.122 5.7724-0.5914 3.5004-2.0019 5.7794-2.9693 4.7978-0.4376-0.444 1.7396-8.3993 3.38-12.35 0.685-1.65 1.501-5.25 1.8132-8s1.3692-6.6012 2.3488-8.5583c9.2131-18.406 8.6339-48.885-1.3276-69.87-4.4092-9.2885-4.2404-11.572 0.8557-11.572 2.5049 0 2.9504 0.44962 3.468 3.5 0.3266 1.925 1.7263 5.975 3.1104 9 6.361 13.902 8.0487 37.067 3.9708 54.5-2.2583 9.6537-2.369 10.5-1.3743 10.5 4.4071 0 16.619-15.87 21.546-28 0.7819-1.925 2.6484-6.5173 4.1478-10.205 2.8445-6.9958 4.7309-9.4126 6.4956-8.322 2.3888 1.4763 0.014 16.501-3.1521 19.943-0.9694 1.0539-2.8092 3.5289-4.0886 5.5-10.518 16.204-14.49 21.51-20.227 27.02-6.0201 5.7808-6.5669 6.6455-6.2908 9.9477 0.6793 8.1241 14.235 2.8745 29.6-11.463 8.9249-8.328 10.515-9.3418 11.685-7.4491 0.5829 0.94323-15.246 20.029-16.612 20.029-0.3747 0-2.6364 1.6368-5.026 3.6374-5.5926 4.6823-11.894 7.3626-17.311 7.3626-5.0774 0-7.2403 3.3714-3.206 4.9976 1.7474 0.70439 1.8258 0.88806 0.4009 0.93904-2.1378 0.0765-2.9973 2.0071-5.816 13.063-4.4231 17.35-8.6137 30.587-11.371 35.919-1.373 2.655-3.6409 9.2513-6.9895 20.329-0.9556 3.1615-2.1113 5.9792-2.5682 6.2616-1.094 0.67615-8.3836 24.068-10.28 32.99-0.8186 3.85-2.0795 9.8116-2.8019 13.248-0.9206 4.379-1.8502 6.4183-3.1077 6.8174-0.9868 0.3132-1.7942 1.3763-1.7942 2.3625 0 0.98619-1.1292 3.4571-2.5094 5.4909s-3.467 5.5841-4.6374 7.8895c-1.1705 2.3055-2.9662 5.2649-3.9906 6.5766-1.0245 1.3117-1.8626 3.2242-1.8626 4.25s-0.4384 1.8651-0.9743 1.8651-1.6355 1.2375-2.4436 2.75-2.7323 4.1-4.2761 5.75c-1.5437 1.65-5.8796 6.4656-9.6353 10.701-3.7557 4.2357-8.718 8.8085-11.027 10.162-2.3094 1.3534-6.3482 4.9505-8.9752 7.9935-2.627 3.0431-6.7468 6.6341-9.155 7.9801-4.7853 2.6746-28.513 22.583-28.513 23.924 0 2.247-5.1051 5.7392-8.3899 5.7392-1.9144 0-8.8791 1.7982-15.477 3.9961-7.2763 2.4238-13.892 4.0011-16.815 4.0089-27.171 0.0722-50.038 0.63728-50.997 1.2602-0.6485 0.42083-3.1235 0.31874-5.5-0.22687-2.3766-0.54561-8.2422-1.9024-13.035-3.0152-4.8-1.07-10.5-1.98-12.6-1.98-2.123 0-7.6427-1.1322-12.266-2.5161-4.685-1.4023-13.323-2.9472-19.514-3.4899-8.319-0.72928-12.843-1.6891-18.02-3.8229-3.8016-1.567-9.2429-3.1579-12.092-3.5352-2.8489-0.37735-7.1288-1.5483-9.5111-2.6021-2.3822-1.0538-9.9514-2.6424-16.82-3.5304-6.869-0.88791-13.614-2.0828-14.989-2.6553-2.7812-1.158-7.9975-2.1852-21.811-4.2948-5.9631-0.9107-11.716-2.5536-16-4.569-9.2229-4.3392-15.268-6.3047-16.28-5.2929-1.2401 1.2401-2.8658 13.659-2.8887 22.068-0.0164 6.0071-0.36491 7.5553-2.0198 8.9722-2.6225 2.2455-2.533 3.9708 0.25 4.8189 1.2375 0.37712 3.0583 1.396 4.0462 2.2642 1.6372 1.4388 2.3453 1.4327 8-0.0695 13.06-3.4696 19.166-3.4368 22.725 0.12204 3.1988 3.1987 5.3766 3.9156 6.4786 2.1324 2.7517-4.4523 15.5 1.1744 15.5 6.8412 0 6.145 8.5146 10.74 13.951 7.5287 2.7028-1.5966 3.128-1.6131 4.7586-0.18432 0.9848 0.86292 4.2388 1.7914 7.2311 2.0632 11.004 0.9996 14.521 10.762 6.2877 17.453-3.6929 3.0008-0.5921 4.6087 7.7811 4.0348 6.8369-0.4686 8.3062-0.2764 10.385 1.3587 1.3316 1.0475 2.8861 1.9045 3.4544 1.9045 1.9579 0 2.4533 2.306 0.7612 3.5433-1.6375 1.1974-9.6099 16.605-9.6099 18.573 0 0.532-1.2914 3.761-2.8698 7.1756s-3.4188 7.9125-4.0898 9.9954-2.5239 6.3579-4.1175 9.5c-1.5937 3.1421-2.9033 6.2561-2.9102 6.92-0.02 1.9228-12.006 24.536-14.466 27.293-1.2271 1.375-3.9299 5.65-6.0063 9.5s-5.469 9.025-7.5392 11.5c-6.6562 7.9578-10.996 16.079-10.998 20.583 0 6.645-6.7998 11.096-22.003 14.413-3.025 0.6599-8.425 1.8283-12 2.5966-3.575 0.7682-9.875 2.1233-14 3.0113-14.654 3.1545-38.61 3.1344-44.87-0.038-6.585-3.3369-5.969-4.3577-6.6317 10.989-0.30746 7.12-1.0112 19.866-1.5638 28.324-1.102 16.865-0.49317 26.692 1.8176 29.339 1.339 1.5342 1.2871 2.1741-0.48635 6-1.17 2.524-2.2206 7.5195-2.5584 12.166-0.78331 10.772-5.0348 13.414-7.7559 4.8193-2.0813-6.5739-5.0023-7.135-11.716-2.2504-3.0386 2.2108-16.583 7.0303-19.788 7.0412-1.129 0-6.304 1.1236-11.5 2.4883-10.307 2.707-11.28 2.8522-12.299 1.8337zm34.85-166.7c3.3-0.9194 6.9-2.4892 8-3.4884s2.8948-1.9793 3.9885-2.1781c3.1675-0.5755 3.0653-3.641-0.16732-5.0181-1.5517-0.6611-3.7212-1.9688-4.8212-2.9061-1.1-0.9374-6.5-2.6891-12-3.8929-5.5-1.2037-10.9-2.5462-12-2.9832-16.64-6.6114-65.205-7.1585-72.173-0.8132-1.5616 1.4221-3.9157 2.068-8.3698 2.2966-23.518 1.2071 5.0614 13.058 47.042 19.507 4.125 0.6337 8.175 1.3118 9 1.5069 4.4454 1.0515 35.976-0.4909 41.5-2.0302zm90-63.46c39.158-3.7332 47.423-5.0449 42.685-6.7743-0.7231-0.2639-1.7244-1.5577-2.2253-2.875-1.1912-3.1331-11.098-3.7504-10.354-0.6451 1.077 4.494-12.566 7.9136-18.921 4.7428-4.458-2.2239-14.484-1.9443-18.185 0.5072-4.8223 3.1937-11.913 2.7407-15.654-1-3.4882-3.4882-4.2697-3.7278-3.582-1.0981 0.89519 3.4232-5.7025 5.4302-17.814 5.4189-12.701-0.012-15.62-1.6333-14.741-8.1877 0.68062-5.0743-1.4985-6.9726-6.0958-5.3102-1.7903 0.6474-4.6592 1.1771-6.3752 1.1771-3.5804 0-4.935 1.4553-3.2474 3.4888 3.6081 4.3474-1.2675 8.4732-10.041 8.4965-5.2048 0.014-7.95 1.1726-7.95 3.3559 0 1.2166 77.539 0.1296 92.5-1.2968zm-112.5 0.1092c0-5.0697-3.4966-7.5661-6.4546-4.6081-3.4285 3.4284-3.2156 4.2637 1.2046 4.726 2.0625 0.2158 4.0875 0.4679 4.5 0.5604 0.4125 0.093 0.75-0.2128 0.75-0.6783zm-29-1.0323c0-1.3077-4.841-2.9095-10.5-3.4741-2.75-0.2745-6.052-0.8201-7.3378-1.2127-2.0442-0.6241-2.2954-0.4144-2 1.6695 0.24391 1.7205 1.1721 2.5606 3.3378 3.0213 4.6282 0.9844 16.5 0.9816 16.5 0zm43.817-5.6213c0.17425-2.2 0.73675-4.4275 1.25-4.95 1.2368-1.2591 1.1937-3.55-0.0668-3.55-0.55 0-1 0.6269-1 1.393 0 1.6956-2.7044 2.8943-3.527 1.5633-2.2173-3.5876-9.473 0.4428-9.473 5.262 0 6.3371 12.316 6.6077 12.817 0.2817zm-87.539 2.8888c0.96563-0.9656-5.1108-5.6101-6.3433-4.8484-0.60848 0.3761-5.1177 0.646-10.02 0.5999-14.418-0.1358-7.4496 3.0904 9.0859 4.2065 2.475 0.1671 4.9875 0.3824 5.5833 0.4785 0.59584 0.096 1.3584-0.1003 1.6946-0.4365zm149.47-5.5916c3.6798-3.054-0.11673-8.1666-5.4006-7.2728-8.5941 1.4538-9.0331 2.1446-4.2611 6.705 3.1517 3.0119 6.481 3.2075 9.6618 0.5678zm-89.695-0.3229c3.1059-1.6061 3.9306-3.4743 1.5337-3.4743-0.77916 0-1.5866-0.5097-1.7942-1.1327-0.65305-1.9592-4.7215 0.1012-6.3258 3.2036-1.8199 3.5193 1.2356 4.1704 6.5863 1.4034zm197.77-0.014 5.1864-1.5402-1.5306-2.9598c-1.9526-3.7759-4.013-3.762-5.9792 0.04-0.8532 1.65-1.9898 3-2.5257 3s-0.9743 0.675-0.9743 1.5c0 1.8221-0.4582 1.8252 5.8234-0.04zm-17.774-0.9855c1.7557-0.9079 2.9503-2.3251 2.9503-3.5 0-2.3663-0.016-2.3684-3.6357-0.4805-1.5754 0.8217-3.6518 1.4967-4.6143 1.5-0.9625 0-1.75 0.6062-1.75 1.3395 0 3.0319 2.5843 3.4501 7.0497 1.141zm-253.5-5.9c0-4.9649-10.597-7.1747-15.881-3.3115-4.3003 3.1445 1.1942 6.7121 9.8807 6.4157 5.9066-0.2016 6-0.2499 6-3.1042zm176.46 0.4651c2.9094-5.4362 0.41994-9.9229-4.4735-8.0624-3.0621 1.1642-3.0906 1.9186-0.24132 6.385 2.6049 4.0834 3.2957 4.3291 4.7148 1.6774zm33.535-1.6054c3.1983-2.7702 3.7116-3.6497 2.5611-4.3882-3.2044-2.0569-10.063 2.8742-8.7516 6.292 0.8746 2.2793 1.6288 2.0473 6.1905-1.9038zm28.164-1.0275c0.3307-0.862 0.2041-1.94-0.2814-2.3955-1.2895-1.21-5.3828 0.6383-5.3828 2.4305 0 2.0599 4.8718 2.0298 5.6642-0.035zm-106.39-1.5841c3.1221-1.6664 0.78992-2.8492-5.587-2.8334-7.0088 0.017-9.2918 0.9766-8.3244 3.4975 0.70965 1.8493 10.037 1.404 13.911-0.6641zm-33.317 0.066c5.337-1.1446 8.6262-4.3686 5.6299-5.5183-0.82238-0.3156-1.9967-0.2639-2.6097 0.1149-0.61293 0.3788-1.6991-0.1109-2.4138-1.0882-1.7013-2.3267-6.6616-0.4846-8.6377 3.2077-2.199 4.1089-0.003 5.0069 8.0312 3.2839zm151.46-6.0485c-0.7171-1.1604-3.5641-1.0722-5.4174 0.1679-1.299 0.8692-1.2414 1.2011 0.4301 2.4767 2.0561 1.569 6.2252-0.6417 4.9873-2.6446zm26.51 0.4987c2.389-3.037 2.6518-5.6395 0.7306-7.234-1.5538-1.2895-2.658-0.51632-2.658 1.8613 0 0.9124-1.125 2.7159-2.5 4.0076-3.1407 2.9505-3.1597 4-0.073 4 1.4313 0 3.2779-1.0812 4.5-2.6349zm-72.368-0.7937c2.1562-1.5869 2.067-1.6506-4.801-3.4341-4.2213-1.0962-4.8936-0.6178-3.6727 2.6127 1.0014 2.6496 5.409 3.0769 8.4737 0.8214zm15.834-0.1532c1.0409-2.7125 0.7061-3.177-2.7588-3.827-6.4733-1.2144-8.5872 1.0739-3.3842 3.6634 4.1761 2.0784 5.3958 2.1109 6.143 0.1636zm-99.643-2.4072c1.7875-1.0899 3.25-2.4117 3.25-2.9373 0-1.5086-1.7914-2.2202-2.54-1.009-0.373 0.60353-1.6453 0.8546-2.8274 0.55792-2.5776-0.64695-3.9358 0.12281-5.5181 3.1274-1.5886 3.0167 2.8661 3.1689 7.6355 0.261zm146.32-0.046c2.5327-1.3554 2.5739-4.9648 0.057-4.9648-1.0326 0-2.4377 0.675-3.1224 1.5s-1.8648 1.5-2.6224 1.5c-0.7577 0-1.3776 0.675-1.3776 1.5 0 1.7585 4.1397 2.0308 7.0657 0.4648zm-233.42-0.7301c1.2142-0.7778 1.6572-3.0156 1.4682-7.4173-0.23-7.13-12.05-3.01-12.05 4.05 0 2.3944 8.1031 4.831 10.647 3.2015zm138.42-1.2c0-4.0116-5.3479-5.8299-6.4972-2.209-0.89457 2.8186 0.16139 4.009 3.5562 4.009 2.1654 0 2.941-0.4747 2.941-1.8zm-92.315-1.3086c2.8148-1.1085 2.8148-1.1088 0.5651-2.1528-1.2375-0.57429-2.25-1.4254-2.25-1.8913 0-1.3153-3.4109-0.99845-5.4714 0.5082-4.4673 3.2666 0.99147 5.9638 7.1562 3.536zm127.32-3.87c0-1.279-0.8858-2.2033-2.5-2.6084-1.375-0.3451-2.5-1.2912-2.5-2.1024 0-2.6374-2.4903-0.73636-2.8301 2.1604-0.3754 3.2006 1.0793 4.4938 5.0801 4.5161 2.0797 0.0116 2.75-0.46756 2.75-1.9656zm-66.75-1.6754c1.3-0.8 0.81-2.34-0.75-2.34-1 0-1.5-1-1.5-3 0-3.3944-0.85181-3.6451-5.0352-1.4818-2.9729 1.5374-4.7449 5.4106-3.4407 7.5208 0.66346 1.0735 8.6984 0.55259 10.726-0.69537zm-31.968-0.70559c4.7697-2.0188 7.329-5.1967 5.7334-7.1193-1.5195-1.8309-4.6885-1.9998-5.2616-0.28052-0.32061 0.96184-0.98292 0.97845-2.9671 0.0744-4.6728-2.129-8.2546 2.0764-5.7517 6.7531 1.2182 2.2762 3.7982 2.4552 8.2469 0.57228zm15.17-3.88c0.21189-0.6875 0.65308-3.1625 0.98043-5.5l0.5952-4.25h-4.0118c-4.6354 0-4.6964 0.19805-1.965 6.3729 2.0197 4.5658 3.6495 5.8164 4.4012 3.3771zm118.55 0.57c0-2.6044-4.4342-9.3157-6.1549-9.3157-5.6953 0-7.3201 3.616-3.3906 7.5454 2.2946 2.2946 9.5455 3.6393 9.5455 1.7703zm-82.75-4.4715c5.1959-2.0536 1.6708-6.3812-5.9956-7.3606-6.4492-0.82387-7.5259 0.72293-4.223 6.0671 2.3683 3.832 3.4495 3.9689 10.219 1.2935zm52.435-0.0553c4.0225-2.1305 4.2613-2.1475 6.1507-0.43763 2.1799 1.9727 2.6168 1.6055 3.6117-3.0357 1.29-6.0176-5.6594-7.6957-17.205-4.1546-4.4992 1.3799-6.1472 4.5444-2.9914 5.7442 1.2822 0.4875 2.9304 1.6082 3.6626 2.4905 1.6965 2.0442 1.7805 2.0366 6.7715-0.60685zm-69.88-9.04c-0.38375-2.702-3.9273-3.5301-5.7432-1.3421-1.7504 2.1091-0.4904 3.5921 3.0522 3.5921 2.55 0 2.9616-0.34415 2.691-2.25zm11.62-6.6526c0.3068-0.49642-0.85879-1.3964-2.5902-2-4.31-1.5-4.85-1.4-4.85 0.9 0 2.123 6.2373 3.043 7.4398 1.0974zm9.56-5.56c0-2.0903-3.5204-3.6936-6.4795-2.951-3.3137 0.83169-3.2065 2.2264 0.22948 2.9842 1.5125 0.33359 3.2 0.75663 3.75 0.9401 1.9904 0.66397 2.5 0.46558 2.5-0.97334zm-12.964-80.166c2.7229-2.547 7.505-7.7529 10.627-11.569 3.1218-3.8158 7.6101-8.2685 9.974-9.8949 3.1006-2.1333 4.5764-3.9946 5.2975-6.6813 2.39-8.93 4.06-17.07 4.06-19.83 0-1.6424 0.39882-3.4136 0.88626-3.9361 0.48745-0.5225 1.6574-6.35 2.5999-12.95 0.94248-6.6 2.1036-13.575 2.5802-15.5 3.9606-15.996 3.2465-32.556-1.448-33.577-1.715-0.37307-4.0059-1.2958-5.0908-2.0505-1.09-0.76-2.58-1.38-3.32-1.38-0.73833 0-5.7007-2.3564-11.027-5.2365-19.481-10.533-31.454-15.75-34.778-15.154-4.0653 0.72841-25.375-1.3496-32.552-3.1744-16.545-4.2066-21.038 1.768-8.6537 11.509 4.367 3.4351 29.895 7.7597 40.42 6.8472 7.23-0.63 8.38-0.25 8.38 2.7 0 2.24-8.13 7.51-11.59 7.51-1.1865 0-4.4872 3.2145-12.319 11.997-2.2054 2.4732-5.9397 8.1962-8.2984 12.718-3.3099 6.3448-4.8714 8.3507-6.8428 8.7897-1.4049 0.31284-5.4549 3.1683-9 6.3455-6.737 6.0377-14.163 11.43-18.12 13.158-5.7823 2.5246-18.865 15.256-20.248 19.705-4.2216 13.573 27.93 4.1032 44.923-13.231 2.75-2.8053 6.35-5.9312 8-6.9466s5.5361-4.0261 8.6358-6.6904c10.5-9.0251 16.221-5.8581 6.4239 3.5558-12.39 11.91-16.08 30.6-6.04 30.6 3.0821 0 13.199-9.3399 19.15-17.68 7.7617-10.877 12.714-4.2462 5.1257 6.8635-10.351 15.155-3.1325 24.339 8.6557 11.013 15.293-17.288 22.411-20.938 21.761-11.16-0.16099 2.4198-0.94849 5.1243-1.75 6.01-0.8015 0.88566-1.4573 1.9084-1.4573 2.2729 0 1.271-7.1333 9.9961-9.8063 11.995-11.485 8.5873-18.812 20.305-16.486 26.367 1.1216 2.9228 6.2726 1.4166 11.328-3.3124zm427.87-78.518c1.7025-4.8838 1.2506-5.6249-1.4332-2.3508-2.7543 3.3602-3.1693 5.5-1.0668 5.5 0.7712 0 1.8962-1.4172 2.5-3.1492zm16.537-58.715c0.9824-2.1786 2.6356-4.1832 3.6737-4.4547 2.7789-0.7267 2.2967-2.6808-0.6615-2.6808-2.622 0-6.3771 6.0212-6.4291 10.309-0.032 2.6524 1.3821 1.3388 3.4169-3.1735zm1.3 436.86c-2.2584-1.9828-4.4908-3-6.5845-3-1.7422 0-4.6078-0.7486-6.368-1.6635-1.7601-0.9149-7.2503-3.3353-12.2-5.3788-4.95-2.0434-11.25-4.6442-14-5.7795s-10.175-4.1596-16.5-6.7207-12.175-5.2483-13-5.9716c-1.3951-1.223-5.1583-2.8045-20.5-8.6151-3.3-1.2498-8.0006-3.532-10.446-5.0716-2.4452-1.5396-5.0388-2.7992-5.7635-2.7992-0.7248 0-2.0992-0.3935-3.0543-0.8745-11.129-5.6051-23.377-11.021-25.982-11.49-1.7852-0.3211-4.4414-1.3672-5.9027-2.3247-2.8422-1.8622-12.549-6.1347-15.852-6.9773-3.4744-0.8863-11.5-4.7732-11.5-5.5696 0-0.4201-1.5929-0.7639-3.5398-0.7639s-5.4043-0.9512-7.6831-2.1137c-2.2788-1.1626-7.0984-3.2236-10.71-4.58-3.6118-1.3565-7.2714-3.1-8.1325-3.8744-0.8611-0.7745-3.1111-1.697-5-2.0501s-5.9094-1.9171-8.9344-3.4756-7.75-3.5703-10.5-4.4707c-2.75-0.9003-5.9-2.4132-7-3.362-2.2023-1.8995-16.762-9.0735-18.414-9.0735-0.5706 0-2.5108-0.8983-4.3116-1.9963-1.8008-1.0979-3.8416-1.9979-4.5351-2-0.6935 0-3.2957-0.9602-5.7828-2.1292-3.2083-1.5081-5.5725-1.9551-8.1388-1.5386-2.6479 0.4297-4.3291 0.08-6.2745-1.3053-1.4616-1.0407-4.8817-2.7406-7.6002-3.7775-8.2934-3.1633-18.592-11.187-18.238-14.209 0.4546-3.8849 3.0089-3.6214 13.076 1.349 9.619 4.749 12.232 5.8311 82.219 34.05 44.696 18.022 58.888 23.849 66.5 27.309 2.475 1.1249 9.225 4.0902 15 6.5896 5.775 2.4993 20.4 8.8948 32.5 14.212 12.1 5.3174 27.4 12.014 34 14.88 12.077 5.2461 51.845 21.136 65.164 26.038 8.5729 3.155 9.6713 4.9452 5.3842 8.7757-3.9718 3.5488-7.1495 3.4796-11.395-0.2483zm119.97-9.5496c-0.2645-0.6891 0.7975-5.5109 2.3599-10.715 8.8997-29.642 9.7389-63.99 2.1068-86.228-4.18-12.18-3.7275-14.508 2.8202-14.508 2.5921 0 4.213-5.4277 7.1624-23.985 2.9398-18.496 2.1962-24.357-7.0432-55.515-2.8071-9.4663 0.041-14.857 5.0915-9.6376 1.1013 1.1379 5.6422 15.512 6.3618 20.138 0.385 2.475 1.389 6.525 2.2311 9 4.0359 11.862-0.7004 46.456-8.3679 61.12l-2.5191 4.8177 1.9999 5.781c5.775 16.694 5.3386 55.744-0.8805 78.781-5.3862 19.952-9.0821 26.79-11.323 20.95zm62.238-20.534c-1.5537-1.9465-1.4324-2.4661 2.2472-9.6194 15.501-30.136 15.131-76.438-0.8269-103.37-6.59-11.123-8.2491-11.714-9.7331-3.4715-0.8384 4.6576-3.5205 10.147-6.4966 13.296-4.2846 4.5344-6.0539 1.9592-2.9952-4.3594 3.4274-7.08 1.2858-26.903-3.7422-34.637-2.6189-4.0285-3.2839-5.9385-2.8511-8.189 1.086-5.6473-10.678-29.167-14.889-29.769-1.8452-0.26382-2.0414-0.89381-1.8054-5.796 0.9464-19.655 0.4316-29.027-2.6254-47.794-1.7285-10.612-3.5765-26.812-4.1067-36-0.5561-9.6389-1.8488-20.725-3.0558-26.206-1.1506-5.225-3.3833-15.575-4.9616-23s-3.8823-15.91-5.1201-18.857c-2.5424-6.0514-1.9169-8.4358 2.3477-8.9494 4.9107-0.59134 7.9744 6.9094 12.787 31.306 1.1935 6.05 2.9646 14.825 3.9358 19.5 0.9711 4.675 2.0926 13.225 2.4921 19 0.3996 5.775 1.5884 18.375 2.6418 28 3.5367 32.313 4.0813 41.07 3.0474 49l-0.9778 7.5 5.307 8c5.8352 8.7962 12.723 22.165 17.002 33 1.8159 4.5982 5.2388 10.088 9.9758 16 16.176 20.188 22.019 32.448 23.591 49.5 0.5324 5.775 1.3711 12.502 1.8637 14.95 0.5129 2.5481 0.5283 6.8214 0.036 10-0.4727 3.0528-1.6055 10.726-2.5172 17.05-1.6181 11.225-3.11 16.098-10.408 34-4.629 11.354-4.9929 12-6.7529 11.987-0.9714-0.01-2.5053-0.9392-3.4087-2.0709zm-153.82-13.85c-1.6248-3.0359-1.335-3.8363 3.7148-10.259 6.0034-7.6358 14.468-20.462 20.143-30.52 2.416-4.2825 7.8796-13.186 12.141-19.786 8.15-12.621 18.903-33.199 23.514-45 1.5046-3.85 4.2042-9.942 5.9992-13.538 5.1265-10.269 8.0397-18.01 9.8638-26.209 1.7109-7.6902 3.4314-9.8524 5.682-7.1406 2.4156 2.9106-1.6874 17.396-9.3153 32.887-1.625 3.3-4.2167 9.375-5.7594 13.5-5.0883 13.605-14.377 31.8-23.993 47-2.6096 4.125-5.5358 9.075-6.5025 11-4.8573 9.6716-20.26 34.611-23.944 38.769-2.3052 2.6019-5.2093 6.1933-6.4536 7.9808-2.6081 3.7467-3.6464 4.015-5.091 1.3157zm-1119.4-29.2c-8.7032-0.458-19.503-1.5201-24-2.3601-4.4968-0.84-14.026-2.4797-21.176-3.6438-31.819-5.1803-43.772-10.579-59.347-26.804-19.407-20.217-26.564-37.243-34.204-81.365-1.5854-9.1556-1.4221-19.945 0.31658-20.918 2.7618-1.5456 5.3834 3.185 6.1659 11.126 3.5695 36.224 26.143 80.888 48.458 95.88 13.765 9.2474 14.696 9.4381 52.111 10.677 9.075 0.3004 16.888 0.9345 17.363 1.4089 1.2403 1.24-0.1578 3.0369-2.3629 3.0369-2.4677 0-3.4248 1.623-1.4125 2.3952 2.9654 1.1379 25.903 0.5367 33.904-0.8887 7.6355-1.3602 10.513-0.9404 9.11 1.3294-0.34338 0.5556-1.9692 1.3056-3.6129 1.6666s-2.9885 1.0707-2.9885 1.577c0 1.3257 3.5098 1.1379 11.5-0.6153 25.308-5.5528 27.39-5.8608 30.039-4.4432 5.7826 3.0947 36.697-10.993 44.244-20.162 0.94404-1.1469 3.7687-4.1719 6.277-6.7222 8.4398-8.5812 27.116-42.138 28.593-51.374 0.34727-2.1717 1.6539-5.1637 2.9035-6.6489 1.2497-1.4851 2.9618-5.3411 3.8046-8.5687 1.7164-6.5728 3.4768-8.9282 5.9604-7.9752 2.5717 0.98686 2.1155 7.3123-0.93988 13.031-1.4396 2.6944-3.2882 7.1489-4.1081 9.8989-1.9464 6.5283-9.1682 23.578-10.801 25.5-0.70096 0.825-2.5061 3.75-4.0114 6.5-4.3902 8.0202-14.332 20.563-22.692 28.631-1.5016 1.449-3.1675 3.7849-3.7021 5.1909-0.65946 1.7346-4.1221 4.4113-10.77 8.3257-14.429 8.4958-17.999 10.006-26.814 11.341-4.391 0.665-9.5587 1.9183-11.484 2.7851-2.3582 1.0618-7.0886 1.6546-14.5 1.8169-6.05 0.1325-14.375 0.4577-18.5 0.7225s-14.621 0.1068-23.324-0.3513zm1086.9-4.1647c-1.9049-2.9072 0.409-5.6715 13.147-15.707 2.8875-2.2748 5.25-4.472 5.25-4.8826 0-0.4105 2.2362-2.5178 4.9694-4.6827 2.7331-2.165 8.6956-8.224 13.25-13.464 4.5543-5.2405 9.4056-10.659 10.781-12.041 4.6159-4.6399 16.36-20.007 24.47-32.019 3.1563-4.675 6.763-9.625 8.0147-11 5.8448-6.4203 17.176-24.691 29.71-47.904 4.8716-9.0225 10.802-19.372 13.178-23 2.3761-3.6275 6.0284-9.408 8.1162-12.846 3.5132-5.7844 5.6444-7.4623 6.8994-5.4317 0.8667 1.4024-3.8929 10.358-9.5415 17.953-2.9744 3.9994-8.0455 12.549-11.269 19-6.7941 13.595-14.37 27.361-22.077 40.115-2.2367 3.7014-5.9731 8.7853-8.5353 11.613-3.5662 3.9364-9.2714 12.226-11.774 17.107-1.0977 2.1411-3.1927 5.0102-4.6556 6.3758-1.4628 1.3657-3.6123 4.0657-4.7765 6-1.1642 1.9344-3.8496 5.5421-5.9674 8.0171-9.158 10.703-11.157 13-19.291 22.168-4.7173 5.3174-11.822 12.292-15.789 15.5-3.9664 3.2075-8.348 6.957-9.7368 8.3322-1.3889 1.3752-4.0889 3.873-6 5.5508-1.9112 1.6778-4.1915 4.1327-5.0673 5.4554l-1.5923 2.4049-1.7127-2.6139zm14.647-70.515c-2.1139-0.7583-1.3464-2.6745 2.0275-5.0624 1.7724-1.2544 5.0225-3.6027 7.2225-5.2185s7.6-5.5204 12-8.6768c17.467-12.531 27.639-20.77 38.948-31.551 11.882-11.328 13.835-12.742 14.994-10.866 1.2587 2.0367-30.761 31.704-39.442 36.545-3.076 1.7152-14.65 10.045-16 11.515-0.275 0.2995-2.3 1.8466-4.5 3.438-2.2 1.5915-4.4551 3.3889-5.0114 3.9943-0.9748 1.0609-5.9283 4.645-7.9886 5.78-0.55 0.303-1.5625 0.3491-2.25 0.1025zm-224.2-8.4c-33.171-2.4348-60.513-12.25-49.92-17.919 1.6726-0.8951 3.2904-0.6081 8.25 1.4639 22.409 9.3618 102.66 11.551 135.82 3.7055 8.4598-2.0014 28.303-4.7729 41.248-5.7612 11.866-0.9059 42.002-6.6711 60.096-11.497 16.914-4.5111 52.183-16.584 59.5-20.368 5.8941-3.0479 33.418-19.775 34.779-21.136 0.7864-0.78636 3.2953-2.3804 5.5754-3.5423 5.2093-2.6545 21.745-19.234 23.565-23.627 1.7503-4.2257 4.3962-3.8941 5.0808 0.63666l0.5 3.309 5.8345-4.1859c4.2413-3.0429 6.1347-3.8857 6.9338-3.0865 1.1552 1.1551-4.507 7.1321-10.891 11.497-1.7175 1.1742-5.7675 4.0261-9 6.3374-28.023 20.038-36.509 25.533-51.834 33.57-3.3237 1.7429-7.6181 4.35-9.5431 5.7936s-5.975 3.3247-9 4.1803c-10.454 2.9566-26.883 8.8328-35.526 12.706-2.2143 0.99238-6.7143 2.3532-10 3.0241-3.2858 0.6708-10.249 2.5142-15.474 4.0963s-12.65 3.3809-16.5 3.9973-10.375 1.9441-14.5 2.9504c-7.9846 1.948-18.689 3.6335-28.5 4.4877-7.9079 0.6884-27.454 3.9423-35 5.8266-13.577 3.39-65.949 5.4172-91.5 3.5417zm-829.5-32.01c-43.77-1.426-47.97-1.6441-52-2.7008-2.2-0.57685-16.714-1.3106-32.254-1.6305-30.391-0.6257-45.811-1.7804-53.746-4.0249-2.75-0.77789-7.7604-1.654-11.134-1.9468-7.686-0.66716-14.648-2.9981-20.046-6.7116-2.3-1.59-4.63-2.88-5.17-2.88-0.54408 0-3.4682-2.2656-6.498-5.0347-16.763-15.32-1.5859-22.322 57.348-26.458 12.375-0.86837 23.4-1.9486 24.5-2.4006 1.1-0.45195 2.9-0.47713 4-0.056 1.1 0.42118 24.5 0.8054 52 0.85382 50.044 0.0881 57.893 0.30971 77.5 2.1883 5.775 0.5533 15 1.439 20.5 1.9682 26.823 2.581 39.738 6.296 49.892 14.351 3.763 2.9852 7.7676 9.749 7.1004 11.993-1.4201 4.7757-1.4396 6.595-0.0707 6.595 3.696 0 2.7887 4.2833-1.2438 5.872-1.473 0.58032-6.7281 1.5396-11.678 2.1317-25.14 3.0073-37.238 4.7828-39.5 5.797-2.7083 1.2144-24.143 3.3016-31.172 3.0354-2.38-0.09-15.13-0.52-28.33-0.95zm53.852-8.9103c49.742-6.2625 63.574-20.47 25.791-26.489-51.14-8.15-209.53-13.25-225.14-7.25-1.375 0.5281-5.3426 1.3249-8.8168 1.7707-10.222 1.3116-16.291 6.439-14.774 12.482 0.74719 2.9771 4.2654 4.147 16.591 5.5168 5.225 0.58071 11.075 1.4746 13 1.9864 5.6385 1.499 27.553 4.7759 40 5.9812 6.325 0.61246 14.425 1.5536 18 2.0913 15.707 2.3627 25.482 3.0185 56.776 3.8088 18.302 0.46223 33.602 1.183 34 1.6016 0.86403 0.9089 34.406-0.2202 44.575-1.5005zm376.35 2.0435c-3.4936-1.2439-6.0791-1.5104-9.5-0.9789-9.7608 1.5164-102.89 1.4172-134.2-0.14297-9.625-0.47954-31-1.0983-47.5-1.375s-34.407-0.98311-39.793-1.5698c-5.386-0.58668-11.758-0.77194-14.16-0.41169-2.4023 0.36025-8.3456 0.14797-13.207-0.47173-4.8617-0.61971-15.222-1.5023-23.022-1.9614-14.839-0.87328-22.16-3.0441-24.738-7.3346-2.4581-4.0914-7.2668-4.1312 75.92 0.6287 14.3 0.81824 35.675 1.742 47.5 2.0529 31.09 0.81729 57.034 1.5899 68.5 2.04 28.418 1.1154 55.218 1.7304 84.5 1.9391 37.143 0.26468 38 0.4337 38 7.496 0 2.4666-1.5758 2.4835-8.3 0.0893zm95.8-6.74c-5.2074-1.28-6.296-7.5713-2.0454-11.822 6.4698-6.4698 20.568 0.0294 16.51 7.6112-0.56935 1.0638-1.6429 1.9343-2.3857 1.9343-0.74278 0-2.6394 0.67223-4.2148 1.4938-2.9146 1.5201-4.3021 1.6582-7.8643 0.78255zm7.0411-6.3429c0.9082-1.4695 0.17819-1.9892-3.1304-2.2286-1.9975-0.14451-2.9392 0.31095-3.1949 1.5451-0.41436 2.0003 5.1405 2.6005 6.3253 0.68347zm-731.55 4.0481c-0.85148-0.53467-13.107-0.87089-28.494-0.78171-25.985 0.15059-47.879-0.69799-49.877-1.9332-0.52536-0.3247-4.8179-0.51586-9.5389-0.42481-4.717 0.08-10.83-0.21-13.58-0.65-2.75-0.45-13.1-0.49-23-0.1-25.963 1.04-32.5 0.41-32.5-3.1v-2.7097l15.75-0.79493c23.42-1.182 32.893-1.0739 64.314 0.73425 27.303 1.5712 45.056 1.3438 60.713-0.77752 3.3399-0.45253 5.0462-0.10364 7.7916 1.5931 2.802 1.7317 4.3886 2.0416 7.8195 1.5271 4.6586-0.6986 7.0799 0.80915 6.445 4.0133-0.49098 2.478-4.0269 4.5366-5.8385 3.3991zm441.01-36.41c-13.934-1.8968-36.694-6.7404-47.885-10.191-1.6408-0.50586-1.1695-6.0021 1.9363-22.579 7.4209-39.609 5.5858-44.145-12.051-29.788-2.475 2.0147-6.5848 4.8477-9.1328 6.2957-2.5481 1.448-4.8964 3.3196-5.2186 4.1592-0.32 0.83-1.47 1.52-2.56 1.52-1.0848 0-2.2101 0.38466-2.5007 0.85481-1.2103 1.9582-12.729 5.246-17.342 4.9499-7.2563-0.4657-6.9372-12.441 0.46113-17.305 1.6731-1.1 3.5608-3.4168 4.1948-5.1485 0.63402-1.7316 3.1652-5.0034 5.6248-7.2706 2.46-2.27 4.47-4.34 4.47-4.6 0-1.395-3.0924-0.15241-5.145 2.0673-1.2952 1.4007-3.93 3.3893-5.855 4.4191s-6.6345 4.4737-10.466 7.6531c-21.572 17.903-39.942 16.653-32.073-2.1817 2.0072-4.804 15.194-19.133 19.828-21.545 2.0845-1.0853 4.2559-2.9959 4.8254-4.2457 1.072-2.3529 2.7425-3.357 14.135-8.496 3.7125-1.6747 6.75-3.326 6.75-3.6695 0-0.81015-11.19 0.53703-12.5 1.5049-0.55 0.4063-2.35 1.0492-4 1.4286-2.6615 0.612-7.7227 2.8852-23.5 10.555-18.464 8.9758-37.092 4.439-29.517-7.1887 10.011-15.367 20.236-22.79 33.459-24.29 3.543-0.402 7.0508-1.3398 7.795-2.084 0.74421-0.74422 3.1329-1.8324 5.3081-2.4181 5.4016-1.4545 4.962-2.5883-1.295-3.3399-8.6187-1.0352-16.132-0.73908-21.341 0.8412-7.9636 2.4158-15.467 0.25559-21.159-6.0916-2.3768-2.6506-3.1064-8.7503-1.1883-9.9357 0.58393-0.36089 1.4642-1.7148 1.9561-3.0086 0.61952-1.6295 2.2074-2.706 5.1662-3.5028 8.8674-2.3877 17.563-3.9686 24.816-4.5115 4.125-0.30878 11.952-1.2601 17.394-2.114 12.712-1.9948 17.551-1.4581 21.989 2.4387 1.8886 1.6582 5.6523 3.7518 8.3637 4.6524 2.7114 0.90058 6.1803 2.9427 7.7087 4.538s4.1886 3.4552 5.9115 4.1331c4.8346 1.9022 9.6325 5.8156 9.6325 7.8567 0 2.8694-2.6609 3.2225-4.3906 0.58265-0.84787-1.294-2.7943-2.6283-4.3255-2.9651-1.5311-0.3368-5.6764-2.6259-9.2116-5.0869-3.53-2.47-6.99-4.48-7.68-4.48-0.68797 0-1.8774-0.62661-2.6433-1.3925-3.535-3.535-11.228-6.1697-17.75-6.0795-17.548 0.24277-30.645 1.767-39.665 4.6165l-9.1655 2.8952-0.66624 3.9434c-0.84 4.99-0.18 6.02 3.86 6.02 1.7825 0 3.7396 0.4986 4.349 1.108 0.70632 0.70632 2.8634 0.8629 5.95 0.43189 14.647-2.0452 29.486-1.5967 32.553 0.98401 2.0884 1.7573 4.1542 2.4818 7.1159 2.4959 9.7708 0.0464 18.093 1.8962 20.423 4.5396 4.2299 4.7978 2.393 7.1027-2.7447 3.4443-5.253-3.7405-34.307 0.1316-35.185 4.6892-0.2718 1.4114-1.7932 1.7074-9.5428 1.8568l-9.2194 0.17774-7.0079 5.6621c-3.8543 3.1142-7.5366 6.663-8.1827 7.8863-0.64616 1.2233-2.4558 3.7892-4.0214 5.702-4.5258 5.5296-3.338 6.9782 5.7469 7.0085 6.5219 0.0217 24.703-7.1766 26.678-10.562 3.2149-5.5122 51.816-11.787 55.484-7.164 1.8789 2.3683 2.4977 8.7399 0.84881 8.7399-1.8978 0-2.9956-1.7029-1.4335-2.2236 3.8543-1.2848-0.93212-2.9876-7.0569-2.5106-11.246 0.87582-32.321 11.118-33.256 16.162-0.212 1.143-1.5694 2.2522-3.3337 2.724-1.6368 0.43774-3.6618 1.6376-4.5 2.6663-0.83816 1.0287-3.1786 3.0938-5.2009 4.589-18.267 13.506-15.58 29.175 2.8053 16.363 3.3706-2.3488 10.121-7.0355 15-10.415 4.8794-3.3795 9.3866-7.0097 10.016-8.0672 0.70991-1.1928 3.2288-2.3892 6.6353-3.1515 3.02-0.67585 8.11-2.8059 11.311-4.7335 5.8964-3.5506 12.909-3.9244 12.909-0.6881 0 1.2276-7.8539 7.2849-9.4456 7.2849-3.83 0-19.05 14.48-19.05 18.12 0 0.95323-1.0535 2.5618-2.3412 3.5747-9.4748 7.4529-2.6743 13.317 9.0912 7.8398 3.7781-1.759 5.25-3.007 5.25-4.4517 0-1.4805 1.004-2.2778 3.8248-3.0374 3.4646-0.93293 13.172-7.3985 14.023-9.3403 0.19123-0.43621 3.5179-2.8816 7.3926-5.4343l7.0448-4.6412-0.68329-12.066c-0.61628-10.883-2.1307-19.833-5.7276-33.853-1.0423-4.0627-1.0013-5.0142 0.27123-6.2867 9.0483-9.0483 16.897 46.844 11.385 81.074-0.88568 5.5-2.0417 12.628-2.5689 15.841-0.52719 3.2125-1.689 8.3535-2.5817 11.424-2.028 6.9762-1.5356 7.458 9.3671 9.1635 7.6053 1.1897 12.706 2.1361 30.753 5.706 7.0237 1.3894 14.051 1.785 32 1.8016 26.013 0.0241 31.849-0.82225 50.88-7.3776 4.88-1.67 10.11-3.05 11.62-3.05 1.5066 0 6.0606-1.1538 10.12-2.5641 10.487-3.6432 12.259-3.8905 13.88-1.9372 1.8564 2.2369 0.2735 4.674-3.7055 5.7051-1.673 0.43352-3.6036 1.465-4.2901 2.2922-0.68652 0.8272-2.5499 1.504-4.1409 1.504s-5.2814 1.3481-8.2008 2.9957c-5.0657 2.8589-21.415 7.8558-31.662 9.6767-6.7006 1.1908-56.084 1.1181-65-0.0957zm-303.5-5.5603c-10.226-1.4358-16.433-3.7865-16.485-6.2433-0.0577-2.7409 4.7779-3.563 16.485-2.8023 12.964 0.84236 29.233-0.10406 41.379-2.4072 20.577-3.9018 20.98-3.9489 23.586-2.7615 5.6165 2.559 2.3251 7.3808-6.9649 10.203-12.494 3.7959-44.01 5.9754-58 4.0111zm-30.79-6.27c-0.249-0.6875 0.56858-2.15 1.8168-3.25 5.3939-4.7532 11.465-27.638 11.468-43.225l0.001-8.225-2.75 0.48548c-11.419 2.0159-14.903 2.1717-19.226 0.85943-2.4881-0.75529-5.5521-1.3781-6.809-1.3841-1.2568-0.006-3.3332-0.69752-4.6142-1.5368-8.2168-5.3838-24.774 1.7799-32.465 14.046-2.2345 3.5638-4.4462 6.4797-4.9148 6.4797-0.46864 0-1.8138 1.7111-2.9892 3.8024-6.37 11.33-17.23 8.93-17.23-3.81 0-7.1114-0.0509-7.1295-5.6158-2-7.737 7.1317-14.868 5.1542-18.831-5.2216-1.9998-5.2364-2.3548-4.0747 5.5852-18.278 2.4596-4.4 6.5847-10.862 9.1668-14.36s4.6948-6.8561 4.6948-7.4624c0-1.5539-9.8586 8.2557-11.576 11.519-4.2105 7.9979-24.742 14.487-30.789 9.7308-9.907-7.7929 8.6172-37.545 27.615-44.353 8.5211-3.0536 9.0743-3.9399 4.645-7.4416-5.623-4.4453-17.868-1.0718-19.485 5.3678-0.57054 2.2732-1.5376 2.9593-3.6805 2.6111-0.42353-0.0688-3.1235 1.0695-6 2.5295-15.991 8.1165-29.767 0.004-22.808-13.431 2.4045-4.6419 12.427-14.44 17.078-16.697 1.925-0.93385 4.6549-3.0573 6.0665-4.7187 2.4334-2.8641 18.561-7.7611 20.867-6.336 0.37978 0.23472 5.0851 1.1339 10.456 1.9982 11.599 1.8664 21.11 4.8892 21.11 6.7087 0 2.2247-5.1185 4.1088-7.5813 2.7908-7.6582-4.0986-30.583-4.9108-37.419-1.3257-2.75 1.4424-7.1032 3.675-9.6737 4.9614-3.3863 1.6947-5.7181 3.9322-8.4654 8.1234-2.0855 3.1814-4.1091 6.014-4.497 6.2945-4.3225 3.1258-0.53979 9.5115 5.04 8.5082 7.8525-1.412 11.02-2.9567 16.297-7.9468 10.346-9.7836 15.767-10.558 27.598-3.9413 5.5996 3.1315 6.6567 3.4068 9.4041 2.449 3.9274-1.3691 11.343-1.3926 13.863-0.0439 2.6949 1.4422 2.5422-0.53061-0.55597-7.1859-7.972-17.125-0.64069-31.726 10.226-20.368 6.5137 6.8083 19.208 14.184 20.053 11.651 0.23857-0.71571 1.1021-0.59522 2.5545 0.35642 6.5064 4.2631 21.067 4.3127 18.282 0.0622-1.4921-2.2772-1.4678-2.467 0.39167-3.0572 1.0904-0.34608 1.9825-1.51 1.9825-2.5866 0-4.5839 27.464-7.7735 42.021-4.8803 16.598 3.2989 20.449 3.5026 22.748 1.2031 2.3377-2.3377 21.496-7.2315 28.301-7.2291 5.0938 0.002 10.61 2.4913 12.709 5.7362 1.9437 3.0037-0.91444 4.3552-3.7615 1.7787-2.8224-2.5542-18.547-1.8807-20.567 0.88093-1.7806 2.4351-1.0223 3.5988 2.3576 3.618 3.6316 0.0207 5.4632 1.335 5.0233 3.6045-0.38553 1.989-13.624 2.5203-24.832 0.99663-14.452-1.9647-19.297-2.7288-26.5-4.1792-6.8881-1.387-9.5601-1.4436-19.225-0.4074-6.1736 0.66193-11.949 0.92571-12.834 0.58617-1.0063-0.38615-1.4584-0.16618-1.2072 0.5874 0.22087 0.6626 1.946 1.6012 3.8336 2.0859 8.9559 2.2994 16.362 15.862 20.325 37.218 0.8157 4.396 2.1219 10.918 2.9027 14.493 6.5805 30.13-4.266 82-17.147 82-1.0903 0-2.1861-0.5625-2.4351-1.25zm-65.78-37.71c3.57-1.82 10.07-9.19 10.07-11.41 0-1.4643 8.5134-9.3286 12.115-11.191 5.6537-2.9236 19.847-2.8558 29.331 0.14029 6.3886 2.0182 9.7089 2.4866 16.054 2.2646 4.4-0.15392 8.6108-0.0697 9.3574 0.18725 2.0428 0.70298 1.4727-16.312-0.93936-28.033-1.0753-5.225-2.3945-11.662-2.9316-14.305-1.2138-5.9722-6.9706-18.415-9.9497-21.506-2.107-2.1856-2.6676-2.2693-10.382-1.5493-9.2185 0.86035-10.038 0.8563-17.655-0.0872-9.041-1.12-9.752-1.4014-15.233-6.0304-2.8966-2.4462-6.8963-5.8145-8.8882-7.4851-6.2595-5.25-7.5065-3.0542-4.0071 7.056 5.9798 17.276 17.928 27.832 28.177 24.893 4.6904-1.3452 5.9514-1.2417 5.9514 0.48824 0 3.7116-11.555 6.4575-19 4.515-2.475-0.64579-6.075-1.4171-8-1.714-1.925-0.29688-4.7976-1.6268-6.3835-2.9554-5.95-4.98-12.62-7.53-12.62-4.82 0 0.825 0.45 1.5 1 1.5s1 0.72748 1 1.6166c0 1.2444-0.51803 1.4344-2.25 0.82491-7.7271-2.719-23.697 1.7086-29.253 8.1101-0.55186 0.63584-2.8883 2.1177-5.1921 3.293-9.7594 4.9788-18.529 23.604-12.897 27.39 4.696 3.1573 10.943-0.1661 23.948-12.74 5.97-5.78 11.49-10.5 12.28-10.5 0.78667 0 2.6316-0.7875 4.0999-1.75 3.6755-2.4094 17.414-2.2329 26.505 0.34058 12.314 3.4859 5.7406 6.1397-7.4935 3.0254-5.3022-1.2477-5.916-1.2077-7.903 0.51562-1.1849 1.0276-3.2733 1.8684-4.641 1.8684-2.8151 0-3.1865 0.40372-10.776 11.716-3.0319 4.519-5.9329 8.476-6.4466 8.7935-6.4755 4.0021-10.057 22.776-4.8737 25.549 5.13 2.74 18.89-9.14 18.89-16.31 0-3.0214 6.0955-9.4559 11.648-12.296 2.1012-1.0747 5.9023-3.1914 8.4469-4.704 5.2362-3.1123 10.006-3.5433 12.033-1.0874 1.0892 1.3195 1.1096 1.751 0.099 2.0912-3.8168 1.2844-11.068 7.4593-14.643 12.47-2.246 3.1478-6.0174 8.167-8.3809 11.154-2.4866 3.1422-4.5431 6.9456-4.8808 9.0266-0.67785 4.1771-0.50252 4.2394 4.6034 1.6345zm45.07-55.93c-1.7121-0.47245-2.5958-1.5038-2.8041-3.2726-0.35581-3.022 2.0539-4.447 3.8534-2.2788 1.5368 1.8517 4.6099 1.8249 10.03-0.0876 8.5145-3.0041 8.942 0.21261 0.54771 4.1212-5.2658 2.4519-7.2865 2.7156-11.627 1.5178zm-43.687 36.256c1.5272-2.5284 2.6161-5.0791 2.4198-5.6681-0.43506-1.3052-7.7329 8.0508-7.7329 9.9137 0 2.4126 2.4963 0.41788 5.3131-4.2456zm177.97 55.838c-4.0597-1.939-4.6278-4.688-6.4481-31.205-3.0236-44.046-1.7082-76.327 3.88-95.222l2.5795-8.7221-2.506-5.7779c-9.6266-22.196-13.895-108.41-6.1689-124.61 1.7496-3.6689 1.7495-3.9612-0.002-8.4818-4.744-12.241-6.6208-20.466-6.6278-29.045-0.0165-20.455 9.303-58.084 15.162-61.22 2.815-1.5066 3.5494 1.6193 1.343 5.7164-0.99883 1.8547-2.1457 5.2834-2.5486 7.6194-0.40289 2.336-2.1658 10.997-3.9176 19.247-2.8145 13.255-3.1029 16.047-2.4789 24 0.38839 4.95 0.84519 12.825 1.0151 17.5 0.29779 8.193 2.4339 16 4.3778 16 1.9378 0 2.0388 3.9668 0.21973 8.6348-1.3316 3.4172-2.1063 8.883-2.6028 18.365-0.38881 7.425-0.75498 14.4-0.8137 15.5-0.34118 6.3909 1.5481 34.658 2.7868 41.697 0.80366 4.5666 1.4618 10.14 1.4626 12.386 0.001 3.8815 0.9627 10.466 2.9812 20.417 0.50204 2.475 1.2018 5.9813 1.5551 7.7917 0.35326 1.8104 1.6736 4.2854 2.934 5.5 3.022 2.912 4.4508 12.418 2.0074 13.356-2.6434 1.0144-6.3332 10.077-7.4131 18.208-1.3744 10.348-2.035 43.323-0.96355 48.092 0.4752 2.115 1.3384 10.529 1.9182 18.699 1.6388 23.089 2.4536 29.555 4.2353 33.611 1.1693 2.6615 1.4784 5.2134 1.0595 8.75-0.65413 5.5231-1.4241 5.8736-7.026 3.198zm429.72 0.59c-4.675-0.39942-13.9-1.1632-20.5-1.6973-13.354-1.0806-29.386-4.1249-37-7.0256-2.75-1.0477-6.6872-2.1395-8.7494-2.4262-15.468-2.1505-46.053-21.265-56.622-35.387-16.78-22.41-17.92-26.81-19.65-75.26-0.73-20.62-1.8-39.95-2.37-42.93-1.09-5.67-0.34-8.07 2.51-8.07 1.9543 0 1.7067-1.3922-0.62244-3.5-4.1406-3.7472-1.2912-5.9333 11.989-9.1987 3.581-0.88049 7.2715-2.3859 8.2013-3.3454 1.877-1.937-0.003-1.8512 41.81-1.9083 30.927-0.0422 37 0.4598 37 3.0584 0 4.5549-2.6899 4.9206-35.088 4.7704-36.89-0.17-48.91 0.71-48.91 3.61 0 0.94262 2.2787 1.5271 7.75 1.9879 4.2625 0.359 15.951 1.7586 25.974 3.1101 10.023 1.3516 20.598 2.6543 23.5 2.8949 7.6351 0.63314 79.476 0.59608 91.276-0.0471 29.184-1.5907 48.168-2.0732 49.75-1.2645 4.5483 2.3258-0.24573 6.8245-7.2725 6.8245-2.5176 0-5.0998 0.5223-5.7382 1.1607-0.96101 0.96101-38.704 2.2967-53.239 1.884-1.375-0.039-16.675-0.2545-34-0.47882-52.482-0.67953-64.508-1.2519-68.24-3.2479-1.7928-0.95888-6.1847-2.0616-9.7597-2.4505-15.301-1.6644-24.591-2.9368-27.688-3.7918-3.6057-0.99559-3.7937-0.84431-2.3359 1.8796 0.85024 1.5887 2.3128 25.904 3.6048 59.933 0.74731 19.682 5.6166 34.772 16.332 50.612 8.9132 13.176 11.35 16.5 12.094 16.5 0.45736 0 3.3494 2.3012 6.4267 5.1137 6.5068 5.9468 33.668 19.885 42.399 21.757 2.9263 0.62757 6.2985 1.6685 7.4937 2.3131 28.648 15.451 130.72 8.2367 148.58-10.501 7.2396-7.5929 8.9804-9.915 9.6215-12.834 2.1-9.53 5.75-13.85 10.47-12.35 5.9708 1.8951-1.4613 24.72-10.344 31.767-10.956 8.6924-16.402 10.736-42.156 15.819-12.768 2.5198-50.657 4.0642-66.5 2.7106zm-550.94-14.72c-4.0797-5.7295-5.8847-28.166-2.3742-29.513 4.7443-1.8206 8.1429 11.873 6.6222 26.682-0.67018 6.5267-1.3118 6.9543-4.248 2.8308zm363.44-105.14c-2.2-0.45505-8.813-0.8533-14.696-0.885-5.8825-0.0317-16.233-0.49177-23-1.0224-6.7675-0.53061-15.862-1.1788-20.209-1.4404-8.8048-0.52982-11.901-2.1459-9.2303-4.817 2.1352-2.1352 26.328-3.0752 32.635-1.2681 2.475 0.70919 10.81 1.7567 18.522 2.3278 14.798 1.0958 23.478 3.5457 23.478 6.6268 0 1.6646-1.3486 1.7506-7.5 0.47817zm961.5-4.5754c-9.075-0.67054-20.61-1.2525-25.633-1.2932-8.5972-0.0697-9.1686-0.20611-9.7344-2.324-0.9544-3.5729 3.4667-5.4989 11.368-4.9522 11.677 0.80787 28.495 1.4971 38.714 1.5866 14.637 0.12815 17.146 1.0544 15.933 5.884-0.7362 2.9334-4.1596 3.0561-30.648 1.0989zm-960.75-2.0295c-3.5505-1.4327 4.4201-11.055 12.225-14.759 3.8582-1.8309 4.4928-3.6714 4.5111-13.086 0.0127-6.5104 5.264-30.909 8.03-37.309 0.75491-1.7467 0.4542-4.0824-1.2231-9.5-2.4977-8.0675-2.9344-20.322-1.4537-40.788l0.83956-11.605-3.7158-0.60299c-12.185-1.9774-20.161-20.378-19.256-44.423 0.53505-14.212 5.7579-10.969 5.814 3.6103 0.0482 12.529 4.8752 27.955 10.511 33.591 6.2531 6.2531 8.0628 5.0003 11.003-7.6171l1.7832-7.6513-3.0659-4.6286c-5.4062-8.1619-6.6029-17.321-6.3534-48.628 0.0733-9.2032 0.48288-13.078 1.5328-14.5 2.7236-3.6902 3.4539-0.28656 3.6602 17.059 0.19338 16.257 2.7065 39.81 4.5549 42.687 1.0879 1.6935 2.1478-6.0565 2.2646-16.559 0.43725-39.288 17.884-89.243 38.987-111.63 6.0698-6.4387 7.0724-8.0142 7.0853-11.134 0.0152-3.6893 6.1289-10.86 9.2678-10.87 0.68592-0.002 7.4442-0.47306 15.018-1.0463 12.818-0.9701 14.295-0.89526 21.339 1.0814 10.452 2.9328 10.845 1.5719 1.3894-4.8117-1.375-0.92829-5.2-3.6566-8.5-6.063-3.3-2.4063-9.555-6.1649-13.9-8.3523-4.3449-2.1874-10.133-5.5132-12.862-7.3906-2.72-1.87-5.56-3.41-6.3-3.41-0.73956 0-6.2016-2.2277-12.138-4.9505-5.9362-2.7228-13.386-5.6246-16.555-6.4484-9.1286-2.373-10.099-4.0148-4.2372-7.1714 4.7871-2.578 16.05-0.2889 29.431 5.9818 5.2624 2.466 10.657 4.7869 11.988 5.1576 1.3313 0.3707 4.829 2.2147 7.7728 4.0978 2.9437 1.8831 7.4134 4.3073 9.9326 5.3872 6.1066 2.6176 24.603 16.269 28.648 21.144 4.7354 5.707 7.8572 8.894 12.411 12.67 2.2336 1.8521 5.691 5.9021 7.6831 9 1.9922 3.0979 6.3188 8.5576 9.6146 12.133 10.081 10.934 14.609 25 8.0493 25-1.58 0-2.03-0.65-2.03-2.93 0-3.11-2.22-6.07-4.56-6.07-0.77882 0-2.5988-1.8737-4.0445-4.1637-6.5777-10.42-24.542-25.061-33.897-27.627-20.476-5.6154-22.821-6.0071-27.5-4.5921-2.475 0.74842-5.7644 1.3656-7.3099 1.3716-3.33 0.01-13.69 9.2-13.69 12.13 0 1.9962-3.0577 4.2889-7 5.2488-11.714 2.8521-30.161 49.434-33.91 85.629-2.0623 19.912-2.2137 22.901-1.2513 24.699 0.72022 1.3457 0.42666 3.0361-1.0974 6.3191-1.1444 2.4651-2.0445 6.057-2.0004 7.982 0.0442 1.925-0.39303 4.0726-0.97153 4.7726-0.57851 0.69991-1.1711 6.5244-1.3169 12.943-0.23928 10.534-0.45538 11.741-2.2197 12.394-7.0095 2.593-6.1859 48.393 0.98808 54.945 3.5722 3.2627 1.8742 10.745-2.1487 9.4683-3.245-1.0299-4.6377 2.7035-8.1976 21.977-1.1038 5.9757-0.0892 21.263 1.5002 22.603 0.61891 0.52209 3.2014 2.2892 5.7389 3.9269 4.2264 2.7277 4.6136 3.3152 4.6136 6.999 0 4.4076-1.4116 6.116-3.129 3.787-4.5698-6.1973-17.198-5.0968-24.035 2.0946-2.7395 2.8815-5.3197 3.6348-8.3129 2.427zm900.45-5.58c-2.2047-3.0114-2.3966-4.278-2.6126-17.25-0.1761-10.572-0.7969-16.326-2.5358-23.5-2.5202-10.398-4.2706-11.729-3.7292-2.8363 0.1896 3.115 0.01 6.715-0.398 8-1.4619 4.5986-2.3039-1.1747-2.3765-16.296-0.078-16.207-3.7849-34.228-9.4226-45.805-1.4562-2.9904-2.6477-5.8662-2.6477-6.3905 0-0.52433-0.8426-2.8026-1.8724-5.0628-4.1484-9.105-5.1373-11.818-5.7853-15.873-0.3724-2.3299-1.7267-6.3266-3.0097-8.8815-1.2829-2.5549-2.337-5.4799-2.3424-6.5-0.014-2.6966-4.3013-10.911-9.4827-18.169-2.4791-3.4728-4.5075-6.535-4.5075-6.8049 0-0.26991-1.7766-3.1069-3.9479-6.3043-2.1714-3.1975-4.2405-6.9793-4.5981-8.4041s-1.3034-3.1326-2.1016-3.7951c-0.7983-0.6625-2.3194-3.1098-3.3802-5.4385s-2.9771-5.5176-4.2584-7.0865-3.6536-4.9892-5.2717-7.6007c-1.6182-2.6115-3.2897-4.749-3.7144-4.75-2.669-0.006-19.728-20.07-19.728-23.202 0-1.4377-10.08-13.196-12.39-14.453-1.1661-0.63453-3.5646-2.9511-5.3301-5.148-1.7654-2.1969-6.8256-6.1294-11.245-8.7389-4.4192-2.6095-8.0349-5.1148-8.0349-5.5672 0-0.45244-1.3848-2.3999-3.0774-4.3276-1.6926-1.9278-2.825-3.9135-2.5165-4.4127 1.2206-1.975-35.695-37.549-46.786-45.087-1.1659-0.79229-4.3698-3.3233-7.1198-5.6246-2.75-2.3012-6.575-4.9694-8.5-5.9294-1.925-0.95995-4.4-2.5278-5.5-3.4841-2.4278-2.1107-6.5004-4.2951-12.5-6.7046-2.475-0.99396-7.2-3.2713-10.5-5.0608-5.6279-3.0518-20.681-10.473-32-15.776-2.75-1.2883-7.475-3.12-10.5-4.0704s-6.4-2.0772-7.5-2.5039c-1.1-0.42673-6.7573-1.2411-12.572-1.8098-12.053-1.1788-20.485-3.9862-24.473-8.1486-4.3284-4.5179-1.0609-8.1672 4.0853-4.5626 15.45 10.821 58.689 5.6348 75.392-9.0436 0.8771-0.77076-1.7836-2.5264-5.061-3.3396-1.8548-0.46017-5.8473-1.5687-8.8723-2.4634-5.3105-1.5707-17.854-3.6375-23-3.7896-3.2826-0.097-20.146 2.8421-26.5 4.6187-4.2973 1.2015-5.2263 1.1992-6.6101-0.0162-1.2263-1.077-2.2551-1.169-4.3151-0.38579-1.4878 0.56563-3.8254 1.0284-5.1948 1.0284-1.3693 0-4.4886 0.91059-6.9316 2.0235-2.4431 1.1129-5.5684 2.4518-6.9452 2.9752-1.3927 0.5295-2.5032 1.7511-2.5032 2.7536 0 5.4621-8.7977 10.438-13.843 7.829-1.682-0.86976-3.8055-1.5814-4.719-1.5814-1.3569 0-1.5407-0.64125-1.0039-3.5024 1.2421-6.621-2.9458-12.703-6.9433-10.084-5.266 3.4504-6.4499-0.58788-1.4145-4.8249 8.1308-6.8416 15.819 2.9301 12.408 15.771-0.7945 2.9906 3.729 3.2505 7.2485 0.41648 10.794-8.6921-3.2817-28.44-15.58-21.858-2.4037 1.2864-6.1529 1.4308-6.1529 0.23684 0-2.7459 9.917-7.6436 13.604-6.7184 1.9355 0.48577 2.9859-0.31985 6.3441-4.8657 11.469-15.525 24.481-25.05 45.769-33.505 15.695-6.2336 21.644 0.89589 11.21 13.434-0.9154 1.1-1.9626 3.2599-2.3271 4.7997s-3.3724 5.649-6.6843 9.1314c-3.3118 3.4825-6.5602 7.0242-7.2185 7.8705-4.7117 6.0573-26.632 11.636-28.331 7.2096-0.8645-2.2529 1.4343-3.6151 4.6258-2.7411 11.239 3.0779 30.677-12.242 36.51-28.776 2.7322-7.7438 1.2756-8.8449-6.1118-4.6202-2.2604 1.2927-5.7537 2.6588-7.7628 3.0357-14.867 2.789-39.016 26.901-32.711 32.66 3.6138 3.3007 5.425 7.4341 4.6357 10.579-0.7677 3.0586 0.7455 3.6861 3.5807 1.485 3.6711-2.8501 12.585-5.8078 21.373-7.0915 4.3969-0.64227 12.87-2.0806 18.83-3.1962 12.174-2.2791 15.271-2.1373 31.664 1.4498 11.987 2.6229 21.381 5.8542 24.079 8.2822 0.8683 0.78154 2.5077 1.421 3.6431 1.421 4.8323 0 4.4398 6.6074-0.4718 7.9416-3.3167 0.90097-7.4898 2.8902-22.75 10.844-2.2 1.1467-6.825 2.864-10.278 3.8163-3.4527 0.95223-6.137 2.1536-5.965 2.6696 0.5228 1.5683 7.9404 3.9548 13.243 4.2607 9.1609 0.52851 31.962 11.176 48.96 22.863 5.2829 3.6323 9.8465 6.6042 10.141 6.6042 5.0841 0 59.277 50.485 65.015 60.566 1.8987 3.336 6.4697 8.1515 13.384 14.099 14.399 12.387 25.156 23.3 31.726 32.184 3.0419 4.1132 9.3375 11.792 13.99 17.065 9.7766 11.078 13.761 16.829 18.421 26.586 1.8388 3.85 6.9219 12.4 11.296 19 9.9562 15.024 13.786 22.32 16.615 31.651 3.6413 12.011 10.05 28.921 16.43 43.349 3.2084 7.2562 9.6582 31.127 15.466 57.239 2.8367 12.754 2.9713 35.121 0.2263 37.606-2.4581 2.2246-2.7055 2.1521-5.4489-1.595zm-1213.4-23.41c-3.1645-1.2769-0.74502-14.772 4.2253-23.567 1.9038-3.3688 2.4587-5.3826 1.929-7-6.5048-19.862-7.5726-44.083-2.3606-53.546l3.4563-6.2749-2.2642-1.74c-1.5938-1.2249-2.5369-3.4157-3.1853-7.3996-0.50661-3.1127-1.5723-6.931-2.3682-8.485-4.1191-8.0429-3.86-23.128 0.76997-44.825 2.5186-11.803 3.6763-16.079 7.5815-28 6.4637-19.732 7.9281-26.887 5.8912-28.784-2.1096-1.9654-2.2066-2.3767-1.9296-8.1866 0.28143-5.9029 6.3724-16.832 16.457-29.529 7.02-8.84 8.55-11.47 8.55-14.67 0-5.0248 23.6-26.506 43.849-39.911 10.02-6.63 34.34-19.43 36.92-19.43 0.52647 0 2.0659-0.8721 3.421-1.938s3.7783-2.2577 5.3849-2.6483c3.9795-0.96771 19.471-7.2104 20.961-8.4465 1.8098-1.502 11.363-4.1451 12.483-3.4535 1.5147 0.93613 1.1534 4.4817-0.52216 5.1247-0.825 0.31659-1.5 1.5974-1.5 2.8462 0 2.8713-1.5779 4.1374-6 4.814-5.856 0.89612-23.387 6.3687-27.551 8.6008-2.1556 1.1553-4.4472 2.1006-5.0924 2.1006-0.64523 0-3.5769 1.9327-6.5148 4.295-2.9379 2.3622-7.3074 4.9268-9.7099 5.6991-2.4025 0.77226-5.3985 2.2145-6.6577 3.205-1.2592 0.99051-2.9259 1.8009-3.7037 1.8009-0.77781 0-4.5388 2.1525-8.3578 4.7834-6.2846 4.3294-8.94 6.4439-15.97 12.717-1.2328 1.1-5.2277 4.4606-8.8777 7.468s-6.8277 6.3824-7.0617 7.5c-0.23397 1.1176-0.56092 2.9285-0.72655 4.0243-0.18831 1.2458-1.2962 2.1825-2.957 2.5-4.8617 0.9294-13.267 13.568-17.297 26.008-0.97986 3.025-2.35 7.075-3.0448 9-0.69476 1.925-1.793 5.525-2.4405 8-0.64754 2.475-2.0459 7.2591-3.1075 10.631-1.0616 3.3722-1.9301 7.3542-1.9301 8.8489s-0.60096 4.1356-1.3355 5.8687c-2.2312 5.2647-3.8218 9.9703-4.6142 13.651-0.41445 1.925-1.2337 5.3-1.8205 7.5s-1.5881 7.6-2.2252 12c-0.63706 4.4-1.8363 10.382-2.6649 13.293-0.95963 3.3713-1.3266 7.5464-1.0106 11.5 0.41163 5.1518 3.2961 30.509 3.5841 31.508 0.0477 0.16556 1.6814 0.96728 3.6303 1.7816 5.7724 2.4119 5.4857 7.4558-0.75121 13.216-6.2063 5.7321-6.936 10.406-4.3652 27.958 0.78491 5.3589 1.7483 13.343 2.1408 17.743 0.39256 4.4 1.3771 9.0125 2.1879 10.25 1.5177 2.3165-0.32436 7.25-2.7071 7.25-2.1012 0-5.0681 10.984-4.431 16.405 0.73664 6.2676-2.0112 9.6908-6.3678 7.9329zm472-22.056c-2.0474-0.73414-1.4829-2.8577 3.2812-12.344 2.4922-4.9622 5.4335-11.311 6.5363-14.109 1.1028-2.7978 6.4887-14.251 11.969-25.452 5.48-11.2 9.96-20.67 9.96-21.03 0-0.3665 3.7895-8.3566 8.4211-17.756 10.307-20.917 10.437-21.313 7.3749-22.477-8.0898-3.0757-4.7126-16.621 9.7821-39.234 7.0066-10.931 10.294-18.095 9.7091-21.157-0.30936-1.6183 0.13434-3.7161 1.0966-5.1848 0.89-1.37 1.62-2.84 1.62-3.27 0-1.85-20.75-9.28-25.91-9.28-6.5365 0-9.8467 41.573-3.7923 47.627 4.0882 4.0882 14.587-16.93 13.301-26.628-0.48079-3.6244-0.26342-5.0291 0.93169-6.0209 5.4954-4.5607 5.1569 13.769-0.45211 24.483-1.1406 2.1788-2.0739 4.5413-2.0739 5.25 0 0.70871-0.42456 1.2886-0.94346 1.2886-0.51891 0-1.6976 1.2766-2.6192 2.8368-7.2816 12.327-15.757 4.6173-16.86-15.337-0.2433-4.4-0.47269-8.3259-0.50977-8.7243-0.53992-5.8019-12.863-4.4134-15.303 1.7243-2.31 5.8102-4.2818 40.463-2.8263 49.671 1.5562 9.8443 9.3172 11.023 16.596 2.5194 3.6679-4.2851 3.7315-4.5264 3.8749-14.69 0.15073-10.689 3.9718-9.6639 4.3824 1.1751 0.53493 14.123-8.6364 24.961-19.734 23.321-10.805-1.5968-11.904-5.1644-10.547-34.243 0.8818-18.896 0.3135-21.253-5.1262-21.253-4.7001 0-5.4932 10.135-1.0744 13.73 3.3342 2.7128 4.9042 5.0197 3.857 5.6669-0.51207 0.31647-2.141-0.37637-3.6199-1.5397-4.3348-3.4098-7.5116 13.503-4.0793 21.717 0.72094 1.7254 1.1079 4.2144 0.85987 5.5311-0.5257 2.7909 3.2062 11.828 4.97 12.035 0.66177 0.0779 2.3184 0.19036 3.6815 0.25 6.3 0.28-0.49 6.61-7.09 6.61-3.59 0-9.89-11.85-9.89-18.61 0-1.5448-1.4631-3.4148-4.465-5.7069-15.975-12.198-21.849-28.616-15.772-44.085 4.1746-10.628 5.2141-10.661 15.229-0.48328 5.0275 5.1092 8.1426 7.6087 8.4126 6.75 0.23579-0.75003 0.68601-2.546 1.0005-3.991 0.91558-4.207 5.4893-6.7218 7.5645-4.1591 4.783 5.9068 6.1692 5.258 10.071-4.7136 2.8376-7.2522 2.1335-6.9846 13.433-5.1054 7.1122 1.1829 6.1974 1.8827 7.414-5.6717 2.2197-13.783 7.2217-20.88 11.755-16.679 2.596 2.4059 13.594 6.4564 17.53 6.4564 2.6712 0 5.9855 1.8015 8.013 4.3554l1.6841 2.1213 0.95112-2.4884c1.4746-3.858 4.5782-6.1777 7.3383-5.485 2.1801 0.54716 2.5649 0.0847 4.3279-5.2014 1.0643-3.1911 3.0222-8.502 4.351-11.802 4.9203-12.22 8.3267-23.084 11.113-35.442 4.5702-20.269 5.7005-21.767 16.55-21.938 19.34-0.30398 32.253 14.387 24.009 27.314-1.7767 2.786-4.2017 6.8654-5.3887 9.0654s-3.73 6.7-5.651 10-4.6333 8.475-6.0273 11.5c-3.192 6.9263-10.434 19-11.397 19-1.0286 0-6.0442 9.4426-6.0442 11.379 0 0.88462 1.9125 2.9818 4.25 4.6603 12.378 8.8884 17.516 16.052 13.876 19.346-1.0306 0.93267-2.1417 3.3649-2.469 5.405-0.32738 2.0401-1.2829 7.0834-2.1235 11.207-0.84052 4.124-1.821 11.664-2.1789 16.755l-0.65065 9.2564 3.0287-0.60574c1.8998-0.37997 3.9118-0.0533 5.3979 0.87644 1.3031 0.81521 3.5293 1.7499 4.9472 2.077 2.9906 0.69005 12.084 19.854 16.14 34.015 1.2401 4.3296 2.7109 7.9925 3.2685 8.1398 13.412 3.5424 28.964 19.1 25.056 25.064-3.3011 5.0381-9.015 1.6669-12.932-7.63-3.4288-8.1379-10.738-12.557-15.885-9.6032-5.0887 2.9205-5.6907 2.3734-5.6034-5.093 0.0854-7.3105-1.5158-13.107-7.511-27.191-5.5818-13.113-5.0054-13.201-12.711 1.9413-5.0809 9.9842-12.075 21.137-15.999 25.514-0.99306 1.1075-2.4808 3.6298-3.3061 5.605-2.3325 5.5824-6.455 8.7741-32.552 25.202-6.8135 4.2891-9.3951 4.4327-9.8471 0.54762-0.38848-3.3391 4.2577-7.081 15.099-12.16 18.764-8.7914 45.111-44.211 38.1-51.222-2.281-2.281-2.5242-3.1415-1.9568-6.9246 0.35629-2.376 1.0553-9.2118 1.5534-15.191 0.49808-5.979 1.801-15.371 2.8953-20.871 4.3233-21.729 4.3372-21.674-7.2169-28.839-7.54-4.67-24.01-12.66-26.1-12.66-1.9664 0-4.9442 3.9541-9.0371 12-2.0984 4.125-4.4278 8.2104-5.1766 9.0787-0.74875 0.86831-1.3614 1.8885-1.3614 2.267 0 0.37856-2.0542 4.0722-4.5649 8.2082s-5.0494 8.9658-5.6416 10.733c-0.59219 1.7672-1.6398 3.8881-2.3281 4.7131-2.0636 2.4736-4.0048 12.861-2.6556 14.21 1.4698 1.4698 4.944-1.4753 5.3844-4.5642 0.22093-1.5498 1.1942-2.2844 3.5046-2.6456 2.5239-0.39452 4.0931-1.7658 7.4385-6.5 2.3319-3.3 5.9283-7.9455 7.992-10.323 2.0637-2.3779 3.8914-5.5279 4.0615-7 0.42638-3.6893 4.4207-4.1025 8.207-0.84909 1.549 1.331 4.5148 2.9289 6.5907 3.5508 4.3571 1.3054 6.49 3.4328 5.6462 5.6316-0.98847 2.5759-3.3898 2.7841-7.8641 0.68174-8.7538-4.1131-10.901-3.8149-14.633 2.0325-1.15 1.8017-3.3388 5.0343-4.864 7.1835s-3.4481 4.9053-4.2731 6.1246-3.8625 4.9968-6.75 8.3942c-2.8875 3.3975-5.25 6.6035-5.25 7.1245s-2.925 7.074-6.5 14.562c-3.575 7.4882-6.5 14.698-6.5 16.023 0 2.4096-11.204 27.537-13.539 30.364-2.19 2.64-15.47 29.75-15.47 31.56 0 6.4612-9.0548 19.048-12.75 17.723zm-9.88-130.03c0.30071-2.0625 0.83549-7.4442 1.1884-11.959l0.64164-8.2094-5.7781-6.5406c-12.892-14.594-18.687 3.0344-6.7769 20.617 7.303 10.782 9.8318 12.218 10.725 6.0923zm114.18-57.431c2.1726-4.4994 7.4858-14.062 11.807-21.25 13.086-21.767 17.08-28.823 19.488-34.426l2.3025-5.357-2.2385-2.3828c-3.9196-4.1722-12.384-6.6924-20.323-6.0509-8.049 0.65046-7.956 0.54875-9.6107 10.508-0.69804 4.2016-1.5898 8.0892-1.9818 8.6392-0.39194 0.55-0.98491 2.4386-1.3177 4.1968-0.3328 1.7583-1.357 4.9083-2.276 7-2.2211 5.0556-7.2473 18.975-8.3346 23.082-0.47739 1.8031-1.4444 3.9729-2.1489 4.8218-3.1759 3.8267-2.175 11.212 1.8652 13.762 2.061 1.301 4.3582 3.1017 5.105 4.0015 2.3859 2.8749 3.6254 1.8163 7.6627-6.5447zm-32.704 183.69c-0.7935-0.79351-16.283-2.5296-27.794-3.1153-9.7898-0.49808-12.36-1.432-11.33-4.1168 1.7703-4.6134 48.541-0.62819 48.081 4.0969-0.29261 3.007-6.8061 5.2868-8.9576 3.1352zm-48.275-3.398c-0.54751-0.8859 1.0972-6.732 2.4237-8.6149 0.38747-0.55 3.0766-7.75 5.9758-16 5.9653-16.975 10.955-28.432 20.25-46.5 3.5369-6.875 7.3792-14.85 8.5385-17.723 1.1593-2.8726 3.4289-7.1476 5.0435-9.5 3.8443-5.6007 10.202-18.436 13.635-27.527 2.934-7.7699 5.2842-9.3517 7.305-4.9165 0.88372 1.9396 0.57318 3.1208-1.8395 6.997-1.5965 2.565-2.9292 5.2274-2.9617 5.9165-0.0325 0.68912-1.045 3.1207-2.25 5.4035s-3.6769 7.2328-5.493 11-3.9782 7.9745-4.8046 9.3495c-9.1157 15.167-5.1919 24.736 12.825 31.278 0.97263 0.35312 1.0147 0.91817 0.17441 2.3439-1.6609 2.8181-3.9707 2.8023-7.7137-0.0526-1.8523-1.4128-3.6821-2.5688-4.0662-2.5688-0.38407 0-3.1289-1.7956-6.0996-3.9901-6.8118-5.0322-13.3 0.84235-14.9 13.49-0.33984 2.6866-2.377 7.2774-8.8751 20-2.342 4.5855-5.4287 12.395-6.9166 17.5-0.56107 1.925-1.59 4.175-2.2864 5-0.69647 0.825-1.5879 2.8475-1.981 4.4944-1.1337 4.7499-4.3621 7.2431-5.9829 4.6205zm196.04-2.9349c-0.71745-1.1609-1.3095-4.7631-2.0954-12.75-0.37508-3.8116-1.963-12.105-3.5287-18.43-5.0382-20.353-9.4804-57.814-8.4768-71.483 0.41695-5.6787 0.26216-10.053-0.41813-11.816-0.72953-1.8906-0.76657-4.0006-0.1141-6.5 1.19-4.5584 6.936-27.35 8.1661-32.39 0.55707-2.2828 1.6511-3.928 2.8692-4.3146 3.4164-1.0843 3.9461 0.34168 1.8701 5.0348-1.093 2.4709-1.7165 4.9305-1.3856 5.4659 0.86253 1.3956-1.3191 16.261-3.1214 21.269-1.4042 3.9016-2.9396 20.465-2.6637 28.735 0.26277 7.8766 2.2546 25.857 3.3268 30.032 0.63104 2.4572 1.8049 8.2927 2.6086 12.968 1.7844 10.38 4.1591 22.955 5.4763 29 0.5393 2.475 1.3775 7.425 1.8627 11s1.1895 7.7401 1.5652 9.2558c1.013 4.0868-3.9278 8.1818-5.9411 4.9242zm13.58-1.38c-1.3596-1.3596-1.6389-5.8-0.3648-5.8 0.4594 0 2.8608-1.9125 5.3364-4.25 2.4757-2.3375 7.5087-6.5 11.185-9.25 3.6759-2.75 7.3361-5.9762 8.1337-7.1692 0.7977-1.1931 3.2736-3.1939 5.502-4.4464 2.3165-1.302 5.3717-4.3343 7.1341-7.0808 1.6954-2.642 3.4251-4.8036 3.8438-4.8036 2.357 0 15.073-14.125 18.004-20 1.7838-3.575 4.0587-7.4 5.0552-8.5s3.3669-4.9945 5.2675-8.6545c1.9007-3.66 4.8331-8.385 6.5165-10.5s4.0215-6.3205 5.1959-9.3455c2.6275-6.768 9.512-20.42 12.06-23.915 1.0366-1.4219 3.6604-7.3103 5.8305-13.085 2.1702-5.775 5.7807-14.885 8.0234-20.245 2.2427-5.3596 4.078-10.31 4.0784-11 0.0004-0.69039 1.3341-4.0738 2.9638-7.5186 3.4158-7.2203 8.6397-24.335 10.755-35.237 0.8005-4.125 2.2826-11.038 3.2935-15.362 1.011-4.3239 1.597-8.49 1.3023-9.2581-0.2948-0.76806 0.1426-2.8553 0.9718-4.6384 2.7542-5.922 6.7416-22.327 8.8089-36.242 4.6221-31.11 10.285-49.132 14.012-44.586 2.114 2.5792 2.0261 4.4184-0.6253 13.086-0.7572 2.475-1.6374 7.2-1.956 10.5-0.8191 8.4828-5.9192 34.816-9.4899 49-1.6615 6.6-3.0245 13.661-3.0288 15.691 0 2.03-0.4579 3.9691-1.0079 4.309-0.55 0.33992-1.0028 1.604-1.0062 2.809 0 1.205-0.6953 3.5126-1.5376 5.1278-0.8423 1.6153-1.9615 4.9903-2.4871 7.5-0.5255 2.5097-1.3853 6.1381-1.9105 8.0631s-1.9155 7.2688-3.0896 11.875c-1.1741 4.6063-3.2006 10.906-4.5035 14-4.5557 10.818-12.267 30.746-13.416 34.669-0.6371 2.176-1.8311 6.426-2.6533 9.4444s-2.3282 6.3934-3.3468 7.5c-1.0185 1.1066-3.2192 4.937-4.8904 8.512-1.6711 3.575-4.1565 8.525-5.5231 11-1.3665 2.475-5.3046 10.35-8.7512 17.5-3.4467 7.15-7.7557 15.188-9.5757 17.862-1.82 2.6742-3.311 5.3742-3.3134 6 0 0.62579-1.8024 3.5094-4 6.4081-2.1976 2.8986-3.9957 5.5358-3.9957 5.8604 0 0.32458-3.3922 4.1961-7.5383 8.6034-4.146 4.4073-8.151 9.1951-8.8999 10.64-0.749 1.4445-4.4443 5.0867-8.2118 8.0938s-10.9 8.8862-15.85 13.065c-17.299 14.603-19.875 16.193-22.3 13.768zm-521.96-23.05c-2.2452-2.7956-6.3438-12.04-5.8773-13.256 1.5438-4.0232-2.9654-34.656-7.9867-54.257-4.6255-18.056-9.5797-41.286-16.998-79.702-7.6945-39.848-4.4881-80.434 9.5687-121.12 5.39-15.59 9.5-22.41 13.53-22.41 3.9115 0 2.6965 6.0715-4.1331 20.654-1.8428 3.9347-3.3505 7.7848-3.3505 8.5557 0 0.77095-1.0682 2.8496-2.3738 4.6192-1.7196 2.3308-2.941 6.4492-4.4322 14.944-1.1321 6.4497-2.6181 14.877-3.3022 18.727s-1.4275 17.35-1.6521 30c-0.66437 37.428-1.2893 31.068 6.3869 65 4.1474 18.333 5.1832 22.572 5.9439 24.323 0.40085 0.92255 1.059 3.9274 1.4625 6.6774 0.40354 2.75 1.716 8.15 2.9165 12s2.84 9.7 3.6433 13c0.80329 3.3 2.1044 8.25 2.8913 11 1.2727 4.4476 3.4775 22.48 5.1049 41.75 0.75032 8.885 1.5843 8.8165 14.589-1.199 5.6769-4.372 15.497-11.435 21.822-15.697 14.262-9.6083 23.314-17.677 33-29.417 4.125-4.9994 10.217-12.318 13.538-16.264 9.31-11.04 10.47-12.75 10.47-15.38 0-5.2118 11.441-30.43 20.967-46.215 3.1766-5.2639 6.3068-11.223 6.9558-13.242 1.3094-4.0732 5.6823-10.491 10.785-15.829 5.9207-6.1936 23.783-38.186 27.639-49.504 1.9522-5.7294 2.2873-26.068 0.57026-34.609-2.267-11.276-1.0408-14.33 2.7652-6.8865 3.2491 6.3543 3.6074 34.828 0.52852 42.004-4.8218 11.238-6.3455 14.599-7.2521 15.996-0.53524 0.825-1.4635 2.625-2.0628 4-3.141 7.2067-4.5932 9.9075-7.5996 14.134-1.8129 2.5487-3.2962 5.0364-3.2962 5.5282 0 1.1281-2.9404 5.1928-10.25 14.17-3.1625 3.8838-5.75 7.6086-5.75 8.2773 0 0.66871-1.2985 3.2802-2.8856 5.8034s-3.4016 6.2132-4.0322 8.2001-2.9321 6.0057-5.1144 8.9306c-2.1823 2.925-3.9706 5.7993-3.974 6.3875-0.003 0.58816-0.71462 2.4194-1.5805 4.0694-1.7321 3.3006-2.2043 8.1019-1.0446 10.621 0.43203 0.93847 0.19571 2.2065-0.56124 3.0114-0.71913 0.76469-3.3325 5.3971-5.8075 10.294-2.475 4.8972-5.9625 10.39-7.75 12.205-1.7875 1.8157-3.2579 3.6538-3.2675 4.0846-0.01 0.43083-2.2596 3.1934-5 6.1391s-4.9825 5.5055-4.9825 5.6885c0 3.8631-30.909 36.532-38.981 41.2-14.652 8.4738-29.343 20.149-31.84 25.305-2.6936 5.5616-9.9153 10.22-11.938 7.701zm522.65-28.116c-5.4066-2.6955-3.0447-5.1242 5.1064-5.2507 8.3593-0.12971 9.6311-0.56783 19.247-6.6301 12.309-7.7604 20.218-17.313 25.877-31.254 1.7158-4.2269 4.7583-5.6729 7.372-3.5036 1.6924 1.4046 1.0443 3.3822-2.6759 8.1654-1.5664 2.014-3.4795 5.1731-4.2513 7.0203s-2.355 4.2198-3.5181 5.2724c-1.1632 1.0526-3.023 3.3833-4.133 5.1793s-3.6829 4.2718-5.7177 5.5018-4.6618 3.166-5.8377 4.3022c-7.7013 7.4404-25.967 13.939-31.468 11.196zm-84.908-21.152c-1.7471-2.1051-0.60255-10.747 1.9758-14.919 1.1214-1.8145 2.0388-3.921 2.0386-4.681-0.00021-0.76009 1.3332-4.082 2.9631-7.382s4.5057-9.444 6.3906-13.653c1.8849-4.2093 5.1786-9.6093 7.3193-12s5.1145-6.1467 6.6085-8.3467c7.2448-10.668 23.586-25.746 31.477-29.043l3.6295-1.5165-6.599-6.7202c-16.83-17.14-19.75-34.35-11.72-69.05 1.06-4.58 1.93-11.25 1.93-14.81 0-3.5677 0.5123-7.444 1.1384-8.614 4.8182-9.0028 10.84-8.2111 7.5786 0.99639-0.92778 2.6193-1.9803 7.4623-2.3389 10.762-0.3586 3.3-1.1219 6.9-1.6963 8-5.7649 11.041-4.6732 39.265 1.9846 51.308 22.383 40.488 64.138 39.582 91.837-1.9933 2.4496-3.6768 5.6649-7.2768 7.1451-8 1.5818-0.77282 4.8676-4.8119 7.9707-9.7979 2.9037-4.6657 5.7715-8.6471 6.3728-8.8475 2.6332-0.87774 19.305-27.877 20.173-32.669 0.5622-3.1031 2.3003-2.3572 2.6396 1.1327 0.2877 2.9589-3.977 12.511-8.3168 18.629-0.8733 1.231-3.647 5.3883-6.1638 9.2383-2.5167 3.85-5.1957 7.675-5.9531 8.5-3.2064 3.4924-8.3709 10.247-8.3709 10.949 0 0.41765-1.125 1.9733-2.5 3.4569s-2.5 3.1288-2.5 3.6559c0 2.6286-20.151 25.091-27.5 30.654-4.0122 3.0374-14.897 8.4317-23.718 11.755-7.0163 2.6429-20.249 1.763-28.282-1.8806-7.2773-3.3009-10.39-2.9229-14.503 1.7609-1.6402 1.868-4.3248 3.665-5.966 3.9932-2.9445 0.58889-20.01 16.912-20.028 19.156-0.007 0.93559-6.6825 11.462-9.0484 14.269-1.5676 1.8599-4.9073 9.4837-4.9328 11.26-0.0121 0.84148-1.5314 2.9537-3.3763 4.6938-3.7431 3.5306-6.2643 10.675-5.2264 14.811 0.51301 2.044-0.007 3.3715-2.3814 6.0754-1.8682 2.1278-3.0378 4.5604-3.0378 6.3181 0 3.9806-4.4778 5.6112-7.0147 2.5544zm72.765-6.0542c-3.2363-1.7557-3.0854-0.28206-2.8055-27.398 0.2236-21.667 2.2949-36.698 5.4984-39.901 2.8856-2.8856 3.4591-0.0615 2.1065 10.371-2.0082 15.489-1.5573 50.632 0.6784 52.87 3.6264 3.6287-0.5569 6.7281-5.4778 4.0585zm-655.98-8.5067c-12.405-7.3666-22.091-24.664-15.275-27.28 2.5415-0.97528 4.1668 0.26884 8.072 6.179 2.064 3.1236 5.7066 7.9779 8.0947 10.787 2.3881 2.8093 4.342 5.4803 4.342 5.9356 0 0.45526 0.95693 1.8463 2.1265 3.0913 5.3446 5.6891 1.2566 6.4037-7.3603 1.2866zm671.33 3.1398c-6.7841-1.711-5.1979-7.5381 1.7903-6.577 7.4738 1.0279 19.349-5.8091 31.073-17.89 8.5847-8.8459 11.215-4.5274 2.7907 4.5818-13.678 14.79-26.812 22.115-35.654 19.885zm-661.52-25.03c-7.6781-9.1249-12.39-57.181-6.269-63.935 2.7659-3.0519 2.933-2.3747 2.7503 11.151-0.26326 19.496 3.1158 44.229 6.8731 50.308 3.4319 5.553 0.8428 7.4642-3.3544 2.4761zm703.32-10.86c0-1.0041 1.1685-2.9166 2.5968-4.25 5.9308-5.537 29.927-40.591 33.491-48.924 1.2937-3.025 4.9871-10.225 8.2075-16 10.143-18.189 19.931-42.6 30.129-75.137 2.0059-6.4003 4.8184-14.05 6.2498-17 1.4315-2.9497 2.8218-7.2569 3.0896-9.5715 0.597-5.1585 3.4113-8.2211 5.762-6.2702 1.9908 1.6522 1.2748 5.4176-2.5631 13.479-1.5712 3.3-3.8162 9.518-4.9889 13.818-1.1727 4.2998-2.9867 9.6998-4.031 12s-1.9087 5.5895-1.9207 7.3097-0.6723 3.6672-1.4671 4.3268c-0.7947 0.65961-1.9709 3.7522-2.6136 6.8724s-2.9175 8.6767-5.055 12.348c-2.1374 3.671-3.8863 7.2414-3.8863 7.9343 0 0.69289-0.852 3.0894-1.8933 5.3255s-2.1468 5.1907-2.4567 6.5657c-0.3098 1.375-2.6078 5.5481-5.1067 9.2736-2.4988 3.7255-4.5433 7.418-4.5433 8.2056 0 0.78757-1.125 3.0897-2.5 5.1159s-2.5 4.3555-2.5 5.1764c0 0.82083-0.8454 2.8955-1.8787 4.6105-1.0333 1.7149-2.4467 4.918-3.1409 7.118s-2.7483 5.6606-4.5647 7.6903c-1.8164 2.0296-3.9935 5.0265-4.8381 6.6597-0.8445 1.6332-1.9013 3.1225-2.3484 3.3097-0.4471 0.18719-2.819 3.2654-5.271 6.8404s-4.7284 6.725-5.0587 7-1.7473 2.3315-3.1489 4.5699c-5.2 8.28-13.8 15.5-13.8 11.59zm-39.462-14.477c-3.7448-5.7152-1.6462-13.519 2.1519-8.0022 4.3883 6.3741 6.8899 6.057 20.229-2.5648 8.6238-5.5738 14.081-10.111 14.081-11.706 0-0.77412 0.9188-1.9738 2.0419-2.666 1.123-0.69216 5.0311-4.8585 8.6846-9.2585 3.6536-4.4 7.1222-8.45 7.7082-9 4.4013-4.1315 12.066-14.402 16.045-21.5 8.5653-15.28 26.796-42 28.656-42 3.2417 0 3.3152 3.9278 0.1375 7.3501-4.6797 5.0399-8.8102 10.884-10.272 14.533-0.7451 1.8606-2.3144 4.5606-3.4872 6-1.1729 1.4394-3.0574 4.1921-4.1878 6.1171-1.1305 1.925-3.8467 6.425-6.0361 10s-4.3881 7.6908-4.8859 9.1461c-0.979 2.8622-23.504 26.854-25.212 26.854-0.5709 0-1.5532 1.5615-2.1831 3.47-1.3882 4.2062-17.641 17.782-28.419 23.738-4.8191 2.6631-13.159 2.3804-15.053-0.51035zm-468.5-2.19c0-0.825 0.3375-1.5005 0.75-1.501 0.4125-0.00056 2.0629-2.3631 3.6676-5.25s4.8078-7.724 7.1181-10.749c2.3102-3.025 5.4281-7.8106 6.9286-10.635 1.5005-2.8241 4.5217-7.3052 6.7138-9.9579s4.6909-6.1921 5.5529-7.8652c0.86198-1.6731 4.1111-6.8671 7.2203-11.542 8.6528-13.01 16.43-27.267 22.093-40.5 6.9054-16.136 9.9586-21.44 12.753-22.154 3.6147-0.92291 3.6906 0.25097 0.29329 4.5404-1.7332 2.1883-3.9824 6.3716-4.9982 9.2961-3.0839 8.8782-12.479 29.297-14.64 31.817-0.70735 0.825-3.1428 4.7831-5.4121 8.7958s-6.0691 9.8627-8.4439 13-5.0968 7.2792-6.0489 9.2042c-0.95206 1.925-3.2788 5.075-5.1705 7-3.6629 3.7273-10.607 14.846-11.866 19-0.41683 1.375-1.6152 3.3173-2.663 4.3162-1.0478 0.99892-3.0726 3.6989-4.4995 6-4.75 7.64-9.35 11.18-9.35 7.18zm-59.099-13.757c-6.86-8.5976-8.3718-15.737-9.8979-46.743-0.52789-10.725-1.4123-24.675-1.9654-31-2.5908-29.628 0.19175-67.052 5.2164-70.157 1.7409-1.076 1.7385-1.1423 0.35021 9.6827-2.454 19.134-1.9081 40.849 1.9279 76.681 0.80704 7.5387 1.4673 16.512 1.4673 19.94 0 9.3198 3.179 24.985 7.526 37.087 2.8047 7.8082 0.10671 10.439-4.6245 4.5094zm41.171-32.378c-3.1292-3.9782-1.2098-7.3838 2.4497-4.3466 4.5554 3.7806 16.676-2.4118 29.646-15.146 11.942-11.725 22.785-21.254 23.439-20.599 1.0705 1.0705-2.5664 6.4514-6.7928 10.05-6.7008 5.7055-12.777 12.054-12.797 13.37-0.0296 1.9514-9.8685 11.051-12.724 11.768-1.4502 0.36397-3.7972 1.5748-5.2156 2.6906-6.8595 5.3964-14.74 6.3646-18.006 2.2123zm-11.92-30.11c-2.2385-6.4625-5.1824-14.9-6.5421-18.75-2.1385-6.0552-2.3947-8.1135-1.8983-15.25 0.82105-11.805 3.9534-11.123 3.4487 0.75-0.22437 5.2795 0.31679 8.096 2.8822 15 3.8527 10.369 7.9571 24.679 7.9571 27.743 0 4.9083-1.9632 1.7213-5.8476-9.493zm38.745-19.564c-2.5312-0.71605-6.7709-2.7384-9.4214-4.494-2.65-1.76-5.14-3.2-5.53-3.2-0.38907 0-3.3404-1.5855-6.5586-3.5234-3.2181-1.9379-7.4694-3.9591-9.4472-4.4917-4.7582-1.2812-17.847-13.895-21.255-20.485-1.4226-2.75-3.5065-6.35-4.6309-8s-2.0474-3.6817-2.051-4.5148c-0.004-0.83314-0.84659-3.0831-1.8733-5-1.0267-1.9168-2.1925-4.9708-2.5907-6.7866-0.39824-1.8158-2.7082-8.6675-5.1333-15.226-2.43-6.56-4.41-13.34-4.41-15.06 0-1.7282-0.76719-6.8692-1.7049-11.425-2.7468-13.344 1.7092-16.033 5.1997-3.1381 1.2082 4.4635 2.3154 6.5387 3.8505 7.2171 1.8396 0.81296 2.1109 1.6444 1.8557 5.6853-0.22783 3.607 0.1684 5.2348 1.6654 6.8416 1.0804 1.1597 2.7594 5.102 3.7312 8.7607 2.8012 10.547 12.361 31.672 19.604 43.322 3.082 4.9569 11.78 12.189 18.118 15.063 2.1009 0.95282 4.9741 2.6403 6.3849 3.75 1.4107 1.1097 3.2274 2.0176 4.0371 2.0176s4.4615 1.4517 8.1151 3.2261c34.94 16.968 81.388-40.688 69.465-86.226-1.5891-6.0691-2.159-32.802-1.0872-51l0.26503-4.5-7.269-0.72499c-3.998-0.39875-8.1309-1.1862-9.1843-1.75-1.06-0.57-4.22-1.03-7.03-1.03-2.8106 0-7.9027-0.65332-11.316-1.4518-3.413-0.7985-8.31-1.7211-10.882-2.0503-5.1502-0.65906-11.128-4.1263-11.633-6.7473-0.54967-2.8542 4.0862-3.1599 11.008-0.72604 3.4657 1.2186 9.3501 2.4478 13.076 2.7317 3.7263 0.28385 7.0154 0.90483 7.309 1.3799 0.29363 0.4751 2.4198 0.87483 4.7249 0.88828 2.305 0.0134 5.991 0.43679 8.191 0.94078 8.2658 1.8936 33.432 3.5672 35.015 2.3287 1.88-1.46 5.49-14.88 5.49-20.38v-5.4464l-6.25-2.4155c-3.4375-1.3285-6.7-2.7224-7.25-3.0974-1.7702-1.2072-22.705-7.6128-32.5-9.9443-9.6106-2.2876-13.118-3.584-18.431-6.8132-4.53-2.7531-4.491-4.3614 0.0889-3.658 3.5152 0.53992 3.9872 0.32941 5.5457-2.4734 2.8632-5.1493 9.2628-3.645 8.1506 1.9159-0.56799 2.84 2.3015 4.0055 17.507 7.1109 5.8667 1.1982 9.8527-7.8364 4.7608-10.791-1.4822-0.85995-7.4137-15.987-11.166-28.475-2.562-8.5277-4.0858-11.81-6.2097-13.377-2.283-1.6841 1.0309-3.8419 4.7561-3.0969 1.6486 0.32972 2.9975 0.4529 2.9975 0.27372 0-1.46-2.38-6.62-3.05-6.62-1.874 0-11.884 3.0488-19.311 5.882-4.3231 1.649-11.013 3.4874-14.866 4.0852-3.8534 0.59788-7.7414 1.4726-8.6398 1.9438-0.89846 0.4712-3.6586 1.1772-6.1336 1.569-2.475 0.39172-5.4967 1.344-6.7148 2.1161-1.2182 0.77214-3.3264 1.4039-4.6849 1.4039s-3.7369 0.50878-5.2852 1.1306c-1.5483 0.62184-6.1901 1.5185-10.315 1.9926-4.125 0.47409-12.225 1.3999-18 2.0574-5.775 0.65752-14.147 1.2233-18.604 1.2574l-8.1043 0.0619-1.7599 4.9556c-3.7978 10.694-5.6206 30.151-3.1546 33.672 3.3159 4.7341-0.29139 17.006-5.2034 17.702-1.7096 0.24219-2.155 0.77248-1.68 2 2.3019 5.9477 1.6689 12.546-1.5332 15.983l-2.0148 2.1626-3.708-1.9874c-8.3421-4.4711-12.135-0.94741-9.3824 8.7172 2.0162 7.0798 5.1639 9.8839 12.689 11.304 10.121 1.9097 10.855 3.3112 7.3558 14.048-8.6379 26.503-36.628 7.6378-37.199-25.072l-0.20092-11.516 3.4683-5.7458c3.8796-6.427 9.161-10.453 16.002-12.197l4.5301-1.1552 0.13425-11.181c0.0738-6.1495 0.44372-13.658 0.82196-16.685 0.93264-7.4646-0.29989-6.9822-5.7387 2.2458-5.3877 9.1413-6.7291 13.25-4.3259 13.25 2.4968 0 1.8945 2.9125-0.86198 4.1685-5.9293 2.7016-7.293-4.0043-2.384-11.723 5.55-8.74 16.86-31.2 16.86-33.5 0-1.2239 0.8766-3.6437 1.948-5.3773 1.7444-2.8224 1.8454-3.9324 0.96645-10.618-4.46-33.96-10.04-56.56-21.2-85.96-3.8272-10.075-4.7502-11.699-7.3174-12.868-2.9914-1.363-3.0421-3.446-0.14952-6.1409 3.2996-3.074 8.695-1.3511 8.7445 2.7924 0.008 0.70579 1.0879 3.4058 2.3989 6 5.6708 11.222 13.226 36.204 15.64 51.717 0.51357 3.3 1.4022 7.575 1.9748 9.5 1.5412 5.1813 4.244 23.293 4.9147 32.932 0.576 8.2788 0.63968 8.4464 3.4978 9.2066 4.5961 1.2225 48.122-0.84462 55.589-2.6401 3.575-0.85965 10.992-2.2364 16.481-3.0596 5.4897-0.82311 14.49-2.9977 20-4.8324 5.5103-1.8347 12.494-3.9065 15.519-4.604 11.144-2.5693 25.216-10.011 24.471-12.94-0.65376-2.5694-2.0988-10.607-6.9329-38.563-1.4266-8.25-2.9928-16.35-3.4805-18-3.4079-11.529-4.585-33.726-1.8184-34.289 2.0958-0.42627 3.1774 2.0206 4.5482 10.289 0.89399 5.3924 2.933 15.765 9.2389 47 4.9889 24.711 5.2983 42.5 0.73914 42.5-3.2146 0 0.73437 15.097 11.636 44.485 3.0939 8.3403 4.2941 18.081 2.7674 22.46-1.0527 3.0197-0.96481 3.1774 2.621 4.7059 22.905 9.7632 24.642 11.491 24.476 24.348-0.19222 14.884-4.6328 20.841-15.973 21.426-3.9344 0.20313-7.6046 0.64812-8.156 0.98887-3.1436 1.9428-4.4699 25.018-2.3328 40.585 1.8896 13.764 2.4073 30.683 1.1168 36.5-1.2936 5.8312-5.6374 18.888-7.4852 22.5-0.70345 1.375-1.5291 3.175-1.8347 4-0.30561 0.825-1.9323 3.75-3.6148 6.5s-3.7393 6.4995-4.5706 8.3323c-0.83131 1.8328-4.5275 6.3505-8.2137 10.039-3.6862 3.6889-7.255 7.9269-7.9308 9.4177-0.67571 1.4908-1.7678 2.7106-2.4268 2.7106-0.65904 0-3.4812 1.5707-6.2714 3.4905-9.8951 6.8081-24.98 9.9384-34.675 7.1956zm-84.16-126.68c1.471-0.0162 4.2634-6.2887 4.2634-9.5768 0-2.9267-0.68913-3.3284-7.6548-4.4621-17.309-2.8171-20.394-33.414-3.1874-31.616 5.36 0.56 5.84 0.45 5.84-1.38 0-1.09-0.59-1.98-1.32-1.98-0.72702 0-3.0895-1.3375-5.25-2.9722-6.0294-4.5621-17.808 0.19479-13.459 5.4354 0.83153 1.0019 0.51079 1.4504-1.3759 1.924-4.2837 1.0752-4.2599 8.0638 0.0805 23.613 3.2411 11.611 13.18 22.982 18.826 21.539 1.1-0.28119 2.5565-0.51741 3.2366-0.52492zm7.0767-98.289c0.58199-0.70125 1.385-3.7388 1.7844-6.75 0.39946-3.0112 0.76589-5.6625 0.81429-5.8917 0.29594-1.4011-2.4427-0.88561-3.2189 0.6059-2.7991 5.3786-2.2762 15.526 0.62021 12.036zm635.18 199.08c0-0.65741 1.0726-2.3449 2.3835-3.75 2.8451-3.0495 8.7223-17.689 12.204-30.398 3.4906-12.742 12.202-36.857 13.949-38.614 3.3006-3.3191 3.9504 0.50287 1.2194 7.1721-3.5364 8.636-6.7558 17.898-11.743 33.785-5.0941 16.227-10.881 29.094-14.1 31.348-2.7945 1.9574-3.9136 2.088-3.9136 0.45677zm-121.5-10.82c-1.65-0.3487-3.9829-1.1621-5.1843-1.8076-1.21-0.64-3.03-1.17-4.06-1.17-5.731 0-6.6902-5.9561-1.2639-7.8477 3.9909-1.3912 6.4555-9.6405 5.7647-19.295-0.41362-5.7809-0.20368-7.0484 1.4093-8.5081 2.881-2.6073 5.7396 0.3661 4.0072 4.1682-0.66186 1.4526-0.91776 4.2342-0.58244 6.3312 0.41646 2.6044-0.21821 6.4164-2.0899 12.553-3.0642 10.046-2.9271 10.406 4.2926 11.261 16.329 1.9339 45.047-30.275 38.067-42.694-5.4779-9.7466 3.4105-9.4924 9.6162 0.27498 1.9493 3.0681 1.3905 7.7573-0.9244 7.7573-0.7746 0-2.3361 1.2375-3.47 2.75-1.134 1.5125-2.4402 3.2117-2.9028 3.776s-1.6891 2.3643-2.7256 4c-12.097 19.089-28.613 30.852-39.955 28.455zm-431.36-23.31c-9.9701-12.013-4.313-57.382 6.4376-51.629 4.2516 2.2754 13.13 1.1614 22.296-2.7974 5.0745-2.1918 6.0799 0.001 4.0137 8.7548-0.58418 2.475-1.2235 7.425-1.4208 11-1 18.125-4.9807 26.511-9.9682 21-3.3604-3.7132-6.91-1.3793-10.964 7.209-3.6589 7.7509-7.3959 10.074-10.394 6.4621zm394.86-10.75c-19.896-1.0597-24.067-3.1731-28.837-14.61-5.501-13.19-1.0427-19.057 23.337-30.712 22.813-10.905 42.088-21.098 45.827-24.233 1.5547-1.3035 3.2331-2.3701 3.7297-2.3701 1.1947 0 4.5003-6.687 5.2472-10.615 0.4797-2.5222 0.1033-3.5401-1.978-5.3498l-2.5703-2.2349 2.8724-1.8936c1.5797-1.0415 3.4232-1.8966 4.0966-1.9002 1.4024-0.008 3.8151-4.3238 5.7907-10.359 0.7467-2.2811 3.9063-11.123 7.0213-19.648 9.2212-25.236 10.461-28.97 13.449-40.5 5.7161-22.061 9.2078-39.209 9.8541-48.395 0.7814-11.107 1.8185-12.444 7.5425-9.7282 3.5607 1.6896 4.6421 3.8726 2.5568 5.1614-1.5077 0.93184-2.8685 4.8963-3.9029 11.371-0.4913 3.0751-1.8626 8.7411-3.0472 12.591-1.1847 3.85-2.5233 9.7-2.9747 13-1.2278 8.9748-3.6605 18.947-6.5624 26.9-1.4249 3.905-3.4607 9.8586-4.524 13.23-1.0634 3.3716-2.607 6.6892-3.4303 7.3724-0.8232 0.68324-1.4968 2.103-1.4968 3.155s-0.6308 2.9094-1.4018 4.1276c-3.2386 5.1168-3.044 8.544 0.5767 10.155 11.87 5.2814 19.634 8.0412 42.325 15.043 8.25 2.5459 16.109 5.088 17.465 5.6492 1.3558 0.56116 7.6558 2.089 14 3.3953 28.074 5.7804 30.282 6.3602 32.244 8.4655 1.6459 1.7667 2.918 2.0509 8.0637 1.802l6.1095-0.2956 2.2974-8.9383c1.2635-4.9161 2.7526-9.3936 3.309-9.95 0.5565-0.55641 1.0117-2.0762 1.0117-3.3774s0.5355-3.3487 1.1901-4.55c0.6545-1.2013 2.6121-6.9093 4.3501-12.684 1.738-5.775 5.5291-18.15 8.4246-27.5s6.1405-20.375 7.2111-24.5c8.7352-33.657 10.86-35.633 30.971-28.807 19.617 6.6581 29.982 5.9146 49.853-3.5763 14.564-6.956 32.756-36.23 28.017-45.084-1.0995-2.0544-0.822-3.1996 2.2757-9.3916 5.8888-11.771 5.3275-34.281-1.168-46.845-4.2-8.37-27.7-29.29-32.7-29.29-0.5395 0-4.0806-1.4175-7.8692-3.15-5.619-2.5695-8.0457-3.1222-13.169-2.999-6.9083 0.166-9.3872-1.7924-5.6904-4.4956 8.8395-6.4636 42.787 6.2033 53.653 20.02 2.2169 2.8186 5.46 6.3145 7.207 7.7685 11.627 9.6769 14.989 44.686 5.5634 57.923-1.9672 2.7627-2.0861 3.5975-1.1714 8.2237 2.4152 12.215-5.4157 33.11-15.594 41.608-2.3722 1.9807-5.1681 4.9776-6.2131 6.6597-5.1437 8.2795-20.622 15.048-38.08 16.654l-11.699 1.0756-7.3473-4.0305c-14.973-8.2134-18.654-7.9564-21.339 1.4895-1.9259 6.7734-10.362 32.722-15.038 46.253-1.8054 5.225-4.2995 12.65-5.5424 16.5-1.2428 3.85-2.5595 7.45-2.9259 8-0.3663 0.55-1.2382 3.7-1.9375 7-0.6992 3.3-2.1247 9.6797-3.1678 14.177-1.0431 4.4974-1.8965 9.1323-1.8965 10.3 0 3.4205-2.6042 7.5047-7.5751 11.88l-4.6421 4.0862 1.9272 3.2783c1.9364 3.294 5.3076 4.031 7.74 1.6919 1.2124-1.1659 4.55-1.1923 4.55-0.036 0 0.48265-0.675 1.4378-1.5 2.1224-0.825 0.68469-1.5 2.245-1.5 3.4675 0 2.4976-2.856 5.5325-5.2063 5.5325-2.3487 0-3.2907 1.8084-5.2089 10-2.9075 12.417-5.0413 13.292-6.0541 2.4847-0.4607-4.9167-1.2793-8.0892-2.3675-9.175-0.9147-0.91285-2.1132-3.0434-2.6632-4.7347-1.1215-3.4486-3.1581-3.3096-2.7106 0.18494 0.1592 1.2429-0.6283 5.3415-1.75 9.1078-1.1217 3.7664-2.0394 7.8343-2.0394 9.0398 0 4.2194-6.6208 14.093-9.4503 14.093-0.5918 0-2.9491 2.3983-5.2384 5.3295-9.1815 11.756-39.311 14.906-39.311 4.1093 0-1.7701 13.711-11.414 26-18.287 2.917-1.6316 6-7.3998 6-11.226 0-4.5352-0.8817-4.8482-9.8785-3.5072-6.525 0.97259-8.0238 0.37488-9.3981-3.748-0.2107-0.6322-1.3022-0.37826-2.7586 0.64181-11.062 7.7485-9.0788-5.8332 3.1692-21.699 5.4625-7.0759 5.7057-8.618 1.055-6.6917-6.8745 2.8475-16.4 16.118-19.688 27.426-1.5748 5.4173-2.9837 7.5025-4.2281 6.2581-1.1051-1.105 1.8472-11.55 4.8608-17.197 1.6474-3.0872 2.7222-5.8862 2.3884-6.22-1.1112-1.1112-10.543 9.7172-11.796 13.543-1.3832 4.2219-3.0606 4.9311-3.5476 1.4998-0.495-3.4871 5.5686-10.895 17.387-21.242l10.58-9.2631 3.9274 1.1767c2.16 0.64717 3.9273 1.5221 3.9273 1.9442 0 0.42216 2.25 0.76755 5 0.76755 6.7227 0 7.2093-2.9855 0.75-4.6016-8.7422-2.1873-19.858-5.5228-33.853-10.158-3.0814-1.0206-6.6497-1.8557-7.9295-1.8557-2.3051 0-5.5688-0.94832-23.968-6.9642-15.185-4.9648-14-4.9892-14 0.28856 0 2.5066-0.45 4.8357-1 5.1756-1.8768 1.1599-1.1569 4.3538 0.8623 3.8258 1.2834-0.33562 2.0314 0.15974 2.4064 1.5936 0.3425 1.3098 1.3567 2.0806 2.7377 2.0806 2.5348 0 8.9936 6.0325 8.9936 8.4 0 1.7577-2.191 2.088-4.8157 0.7261-0.9264-0.48065-5.0975-1.0833-9.2692-1.3392l-7.5849-0.46532-2.7006 5.5892c-5.6 11.38-8.8 16.1-11.3 16.1-0.6941 0-4.3369 1.632-8.095 3.6268-12.613 6.6945-26.895 13.856-31.884 15.987-2.7217 1.1628-5.6236 2.4099-6.4486 2.7714-0.825 0.36149-5.55 3.0803-10.5 6.0419l-9 5.3846 0.0587 4.344c0.20534 15.199 8.839 19.582 34.441 17.483 17.568-1.4399 16.458-1.5672 16.8 1.9274 0.24234 2.4799-0.19725 3.2933-2.2971 4.25-2.7975 1.2746-4.4736 1.2815-26.503 0.10815zm147.02-15.943c5.5386-1.4714 18.981-16.194 18.981-20.789 0-0.31042 0.9462-1.5716 2.1027-2.8026 6.6238-7.0508-10.521-28.352-17.88-22.214-0.9476 0.79039-2.9858 1.976-4.5293 2.6347-4.3063 1.8377-2.2594 3.1891 4.8302 3.1891 7.7964 0 8.4762 0.8646 8.4762 10.781 0 11.469-0.2749 11.776-23.71 26.456-7.9296 4.9672-1.9253 6.3728 11.728 2.7456zm-3.216-54.821c2.1298-7.0565 1.2576-7.9726-3.3028-3.4688-6.6529 6.5705-12.5 15.693-12.5 19.502 0 3.7314 14.179-10.655 15.803-16.033zm17.932 3.0238c0.6793-0.4315 2.0814-3.3496 3.1157-6.4847l1.8804-5.7001h-3.3904c-3.7979 0-5.3409 2.4264-5.3409 8.3984 0 4.3569 1.0928 5.4647 3.7352 3.7864zm-7.6-6.68c1.0427-2.75 1.8961-5.5625 1.8966-6.25 0-4.1864-5.5082 3.0449-6.6424 8.716-1.0721 5.3604 2.4777 3.5158 4.7458-2.466zm-463.41 65.75c-0.23142-0.4125-0.71998-2.0012-1.0857-3.5303-0.49503-2.0699-1.4383-2.935-3.6916-3.3857-2.5518-0.51036-2.9791-1.0142-2.7233-3.2111 0.51443-4.4192 7.5539-4.1606 9.6104 0.35314 3.2526 7.1387 28.217 0.48404 49.267-13.133 11.46-7.41 28.93-26.55 28.93-31.69 0-6.4167-25.025 2.1498-32.798 11.228-6.5278 7.623-17.428 16.395-24.37 19.611-2.6125 1.2104-5.3309 2.6436-6.0409 3.185-3.4412 2.6236-13.886 5.3479-13.721 3.5786 0.30662-3.2719 2.2914-4.6422 11.237-7.7578 21.221-7.3911 30.843-19.235 33.609-41.371 1.2951-10.366 0.88309-10.883-5.1939-6.5171-13.341 9.5845-30.39 27.416-34.194 35.764-3.7829 8.301-4.7244 9.3055-6.6018 7.0433-2.6499-3.1929 0.43211-9.6996 10.523-22.217 12.463-15.459 14.441-17.438 22.88-22.889 3.9434-2.5473 8.9698-6.3213 11.17-8.3866 3.6518-3.4282 5.7747-4.354 9.25-4.0339 1.6682 0.15368 1.5924 5.4848-0.23635 16.615-2.4646 15-1.883 16.289 5.7159 12.658 2.3488-1.1223 8.0955-2.743 12.77-3.6015 4.675-0.8585 10.419-2.0098 12.764-2.5586 9.5086-2.2245 10.731-0.40604 3.7356 5.5569-2.475 2.1097-4.5 4.2457-4.5 4.7468 0 0.50102-1.35 2.6155-3 4.6988s-3 4.0798-3 4.4366c0 9.2569-36.309 37.74-51.5 40.401-3.3 0.57793-8.025 1.589-10.5 2.2468-2.475 0.65784-6.8248 1.2455-9.6662 1.3059s-5.5039 0.44735-5.9167 0.85985c-0.41276 0.4125-1.0989 0.75-1.5248 0.75-0.42587 0-0.96366-0.3375-1.1951-0.75zm352.97-20.072c-4.1212-4.3016-3.7042-16.772 0.6401-19.144 4.314-2.3551 6.7301 1.0741 6.5711 9.3264-0.2394 12.421-2.1824 15.066-7.2112 9.8172zm406-24.845c-8.6976-8.6976 31.167-11.812 127.13-9.933 24.247 0.4748 43.181 0.34695 54.105-0.36533 21.307-1.3894 29.415 1.2191 17.594 5.6606-9.5183 3.5764-82.829 5.1282-107.58 2.2773-11.408-1.3138-50.906-0.43646-72.307 1.6061-17.015 1.6239-18.033 1.6645-18.943 0.75447zm-10.605-18.44c-2.6245-5.0353-5.0296-22.965-5.083-37.893-0.021-5.775-0.6899-16.8-1.4872-24.5s-1.4566-21.425-1.4651-30.5c-0.024-25.021-3.2865-82.135-7.627-133.5-0.8365-9.9-1.9329-23.85-2.4362-31-0.5034-7.15-1.1491-14.35-1.4351-16-0.4358-2.5151-2.7425-23.633-5.2159-47.75-0.3879-3.7829-0.2238-5.75 0.4797-5.75 0.5881 0 1.2131-0.96654 1.3888-2.1479 0.4409-2.9635 3.315-4.6602 5.5287-3.2638 1.3585 0.85692 1.7755 2.9073 2.0328 9.9949 0.4071 11.218 0.6873 14.543 2.7314 32.417 0.912 7.975 1.8022 16.58 1.9782 19.123 0.176 2.5426 0.6638 7.9426 1.0839 12 0.9995 9.6517 1.1862 12.624 1.8763 29.877 0.5897 14.743 1.8723 33.662 3.627 53.5 2.3119 26.138 4.5349 68.378 5.4467 103.5 0.3213 12.375 0.8039 24.075 1.0725 26s0.6609 8.5135 0.8718 14.641c0.2108 6.1276 0.8385 11.992 1.3948 13.031 0.5564 1.0395 0.9359 6.4878 0.8435 12.107-0.1932 11.751-1.7713 13.472-5.6066 6.1137zm-878.43-21.57c-2.316-2.316 2.9671-4.8648 13.041-6.2914 6.6954-0.94818 9.5948-0.28296 7.085 1.6256-4.7335 3.5995-18.094 6.697-20.126 4.6658zm18.905-23.905c-4.2405-4.2405 3.0741-13.294 8.4263-10.43 5.0263 2.69 2.4076 12.001-3.3753 12.001-1.9138 0-4.1868-0.70714-5.051-1.5714zm-16.905-34.095c-4.2884-4.2884 10.934-16.718 20.475-16.718 12.839 0 14.551 7.8117 1.7684 8.0692-8.3448 0.16808-9.4028 0.41377-11.841 2.75-1.4728 1.411-3.2118 2.5654-3.8645 2.5654-0.65275 0-1.7489 0.9-2.4358 2-1.2642 2.0244-2.8837 2.5509-4.1013 1.3333zm56.32-13.16c0-3.18 11.6-12.16 15.69-12.16 7.6636 0 11.885 6.0907 7.9503 11.471-1.4707 2.0113-4.8603 1.4866-4.573-0.70797 0.38182-2.9166-0.21076-3.7634-2.6335-3.7634-2.6988 0-12.989 4.4636-13.977 6.0632-0.98 1.59-2.46 1.04-2.46-0.9zm617.28-48.127c-15.214-3.6157-31.927-23.532-31.068-37.021 0.4237-6.6509 3.3884-6.9057 3.4357-0.29528 0.069 9.5939 10.17 24.354 19.976 29.189 2.6807 1.3217 6.0683 3.0092 7.5282 3.75 1.4599 0.74085 4.2724 1.347 6.25 1.347 4.0948 0 5.0446 2.3784 1.3457 3.3697-2.6278 0.70422-3.1838 0.67896-7.4686-0.33934zm-165.45-8.4771c-11.6-2.55-20.7-7.22-35.3-18.14-35.74-26.76-44.9-52.21-31.3-86.91 4.9032-12.513 26.128-37.991 34.065-40.893 11.693-4.2744 16.67-5.8248 21.238-6.6158 2.75-0.4762 6.575-1.3572 8.5-1.9578 14.913-4.6527 50.758 0.3148 63.942 8.8612 11.064 7.1721 16.695 12.532 11.308 10.764-30.598-10.041-39.142-11.679-61.545-11.798-16.124-0.08617-16.238-0.07107-22.867 3.0264-3.664 1.7121-7.3215 3.113-8.1279 3.113-7.2582 0-27.975 16.079-29.021 22.524-0.31823 1.961-1.4281 4.3328-2.4663 5.2708-5.3463 4.8298-11.208 31.457-9.0712 41.205 0.5426 2.475 1.346 7.301 1.7853 10.724 1.0821 8.4319 11.723 20.746 27.435 31.749 2.3772 1.6647 6.7534 4.8662 9.725 7.1145 2.9715 2.2483 10.353 6.4553 16.403 9.349 20.467 9.7892 19.227 8.9269 17.293 12.023-1.4469 2.3169-3.6077 2.4242-11.96 0.59396zm90.667-4.4945c-8.5647-2.0408-14.845-7.31-14.298-11.996 0.4539-3.8834 3.4772-3.7772 7.6585 0.26909 7.5397 7.2963 18.067 8.2697 29.513 2.7288 4.8098-2.3284 6.2215-2.525 7.1652-0.99812 1.8606 3.0104-8.5322 8.2452-18.583 9.3604-3.0006 0.33291-6.1306 0.77291-6.9556 0.97777s-2.85 0.0508-4.5-0.34237zm-51.924-14.18c-19.354-4.538-38.328-20.86-31.162-26.807 1.5933-1.3223 2.1226-0.88071 5.8775 4.9039 8.3846 12.917 34.112 22.016 46.927 16.596 4.7923-2.0266 4.9818-1.9987 4.6017 0.67777-0.6301 4.436-15.717 7.0971-26.244 4.6289zm-681.35-35.45c-18.06-3.96-28.24-13.59-34.81-32.95-7.07-20.82 13.72-53.48 34.04-53.48 2.4064 0-0.26562 4.3286-4.23 6.8523-22.74 14.476-23.85 16.086-22.717 32.945 2.3327 34.714 47.369 53.831 79.182 33.611 4.8136-3.0596 6.016-0.0936 1.616 3.9862-2.5211 2.3377-15.998 7.2235-26.331 9.5457-6.1799 1.3889-19.219 1.14-26.753-0.51061zm230.27-21.41c-0.29046-0.46998 1.6123-1.6158 4.2283-2.5462 28.662-10.194 40.284-20.954 47.617-44.084 5.63-17.765-2.24-46.345-14.86-53.946l-4-2.4088 3.4332 0.64391 3.4332 0.64391-2.0918-2.9116c-7.53-10.493-23.7-17.471-32.36-13.965-1.51 0.612-6.17-4.923-8.11-9.638-1.61-3.9119-10.06-7.187-17.8-6.9008-2.48 0.0915-7.45-0.3567-11.06-0.996-5.64-0.9996-6.99-0.9347-9.7 0.4632-1.73 0.8941-3.94 1.6256-4.92 1.6256s-4.04 0.854-6.8 1.8977c-2.76 1.0433-9.52 3.5713-15.02 5.6173-10.492 3.903-20.5 8.5212-20.5 9.4597 0 0.30402-2.2737 1.6323-5.0527 2.9517-3.142 1.4917-9.098 6.3192-15.75 12.766-10.919 10.582-13.284 11.794-15.595 7.9971-0.91164-1.4977-0.58362-2.2507 1.8979-4.3572 6.4057-5.4376 14.16-12.981 17.644-17.163 22.27-26.739 108.86-38.118 108.86-14.305 0 2.3432 3.5794 3.5258 10.835 3.5796 16.8 0.124 43.16 25.256 43.16 41.157 0 0.78453 0.40515 2.2078 0.90034 3.1628 2.7648 5.3324 4.509 13.351 3.3185 15.258-0.67038 1.0735-1.2448 4.0953-1.2765 6.7153-0.0639 5.2831-2.921 17.304-4.6136 19.411-0.59771 0.74403-2.0826 3.3286-3.2998 5.7434-1.2172 2.4149-3.0366 5.2746-4.0432 6.355s-2.3697 3.2671-3.0292 4.8594c-0.65952 1.5922-1.5975 2.895-2.0844 2.895-0.48691 0-1.8948 1.173-3.1287 2.6067s-3.1434 3.0116-4.2434 3.5064c-1.1 0.49484-4.7 2.434-8 4.3094-3.3 1.8753-7.575 3.7057-9.5 4.0676-1.925 0.36186-4.4349 1.2592-5.5775 1.994-3.1064 1.9978-12.302 4.5203-12.907 3.5408zm-130.19-4.6024c-4.4774-1.6498-7.8487-5.6212-6.8908-8.1174 0.64485-1.6805 2.4689-1.4652 9.0636 1.0697 12.201 4.6898 35.186-0.74085 45.899-10.844 4.8394-4.5641 8.601-3.7257 8.601 1.9172 0 0.41314-11.188 7.5175-17.127 10.876-10.19 5.762-30.603 8.3938-39.546 5.0986zm63.705-10.362c-1.1991-2.2406-0.76157-2.6218 4.5547-3.9689 9.5049-2.4084 17.871-5.1617 20.078-6.608 2.6628-1.7447 4.3355-1.2332 4.334 1.3252-0.003 5.5286-26.44 13.972-28.966 9.2517zm663.02-26.957c-1.7423-3.2555-19.817-14.327-27.556-16.878-21.6-7.1224-29.335-8.4652-46.138-8.0108-15.145 0.40958-16.077 0.55429-20.634 3.2054-8.469 4.9267-11.246-0.44126-3.4772-6.7225 8.1192-6.5649 46.859-8.8088 57.506-3.3308 1.5093 0.77656 5.9142 2.3533 9.7887 3.5038 14.647 4.3494 33.455 20.427 33.455 28.597 0 2.1298-1.7238 1.9166-2.9445-0.3641zm-819.66-19.4c-1.0047-2.6183 1.4484-8.4541 7.6214-18.131 16.57-25.979 47.35-37.654 66.94-25.389 2.475 1.55 5.9546 3.4963 7.7325 4.3252 5.04 2.349 5.89 9.495 1.13 9.495-1.2115 0-2.9342-0.66205-3.8283-1.4712-6.1983-5.6094-10.583-6.5761-29.392-6.4802-1.5734 0.008-4.1385 0.67538-5.7003 1.483-1.56 0.807-4.01 1.468-5.45 1.468-1.4478 0-5.9729 2.2207-10.188 5-4.1709 2.75-7.8688 5-8.2176 5-0.34872 0-1.5239 1.6544-2.6114 3.6765-1.0876 2.0221-2.4984 4.1984-3.1351 4.8362-0.63671 0.63786-2.7276 3.596-4.6464 6.5735-4.8107 7.4652-9.4232 11.788-10.258 9.6138z"/>
</svg>
